<svg width="140" height="26" viewBox="0 0 140 26" fill="none" xmlns="http://www.w3.org/2000/svg">
<path fill-rule="evenodd" clip-rule="evenodd" d="M24.3049 19.3801H26.1188C27.9238 19.3801 27.9326 19.3768 27.9365 18.6695C27.9388 18.2744 28.0251 18.0879 28.1308 18.2494C28.6475 19.0375 30.1761 19.6367 31.6727 19.6375C35.2525 19.6398 37.8115 16.9145 37.8115 13.0994C37.8115 11.2878 37.5395 10.3939 36.552 8.96318C34.7798 6.39493 31.0863 5.79233 28.5156 7.65179L27.9326 8.0735V0H24.3049V19.3801ZM48.124 0.755309C47.0935 1.78297 47.1046 2.87937 48.1559 3.92771C48.8381 4.60782 49.0757 4.69413 49.9049 4.5626C51.0852 4.37526 52.0307 3.36517 52.0307 2.29125C52.0307 1.21475 50.7942 0 49.6986 0C49.141 0 48.6409 0.239798 48.124 0.755309ZM67.5779 19.3801H71.1501L71.2426 15.3956C71.3307 11.5971 71.3644 11.3803 71.9632 10.7443C72.7406 9.91926 74.2199 9.83812 75.1284 10.571C75.7184 11.0469 75.743 11.212 75.8228 15.2222L75.9055 19.3801H79.4974L79.4917 14.7935C79.4868 10.9033 79.4137 10.0482 79.0103 9.16267C78.043 7.03886 75.9451 6.08251 73.6558 6.72154C73.035 6.89493 72.3283 7.25592 72.0853 7.52362C71.8422 7.79132 71.545 8.01045 71.4245 8.01045C71.304 8.01045 71.2056 6.2081 71.2056 4.00522V0H67.5779V19.3801ZM90.6395 19.3801H94.2672V0H90.6395V19.3801ZM136.158 0.172356C136.063 0.266931 135.985 4.62745 135.985 9.86241V19.3801H139.872V0H138.102C137.128 0 136.253 0.0775224 136.158 0.172356ZM3.18668 3.20624C0.554029 4.36957 -0.738978 7.66135 0.436388 10.2069C1.00023 11.4281 9.09513 19.3801 9.77454 19.3801C10.0313 19.3801 17.1812 12.7886 18.2695 11.5485C19.4205 10.2368 19.7802 8.781 19.3866 7.02671C18.4807 2.99048 13.4929 1.4734 10.5068 4.32564L9.79423 5.00627L9.08165 4.32564C7.6254 2.93466 4.95025 2.42665 3.18668 3.20624ZM82.6068 6.71844H80.2748V10.0777H82.3477L82.3591 12.4679C82.3726 15.3638 82.6431 16.8865 83.3049 17.793C84.0354 18.7938 85.866 19.6385 87.3047 19.6385C89.2175 19.6385 89.3439 19.5284 89.3439 17.8623V16.3997L88.258 16.3713C86.5514 16.3268 86.2345 15.7416 86.2345 12.633V10.0777H89.3439V6.71844H86.2345V2.84242H82.6068V6.71844ZM7.07348 4.35743C8.79144 5.13677 8.87332 5.35021 8.91374 9.14251C8.93344 11.0071 9.03838 13.6953 9.14721 15.1165L9.34466 17.7005L7.94982 16.4302C3.1986 12.1022 1.51614 10.3133 1.24199 9.29754C0.859271 7.88047 1.15881 6.574 2.11522 5.48767C3.53105 3.87938 5.18735 3.50186 7.07348 4.35743ZM3.70363 6.30862C2.01883 7.98874 3.12657 10.5945 5.52576 10.5945C6.5669 10.5945 7.72128 9.30375 7.72128 8.13965C7.72128 6.06572 5.13112 4.88534 3.70363 6.30862ZM57.245 6.71896C54.7753 7.30037 52.7433 10.0479 52.7062 12.8557C52.643 17.6455 57.2491 20.8313 61.2046 18.7341C61.8747 18.3788 62.4751 18.0881 62.5388 18.0881C62.7477 18.0881 62.6572 19.4897 62.3851 20.4667C62.0071 21.8243 61.0642 22.4809 59.4931 22.4809C58.0151 22.4809 57.3142 22.1877 56.5021 21.2292L55.9206 20.5429L54.4939 21.2853C53.7093 21.6936 53.0672 22.1856 53.0672 22.3789C53.0672 22.5722 53.5626 23.2437 54.1685 23.8711C57.166 26.9766 63.4315 26.3143 65.5241 22.6711C66.1437 21.5923 66.1538 21.4688 66.232 14.1475L66.3116 6.71844H64.483C62.7054 6.71844 62.6546 6.73653 62.6546 7.36445C62.6546 8.14792 62.5733 8.15696 61.6495 7.47582C60.952 6.9616 59.3187 6.45048 58.5087 6.4926C58.2949 6.50371 57.7262 6.60552 57.245 6.71896ZM100.263 6.74118C94.4522 8.51175 93.636 16.2268 98.9718 18.9481C101.458 20.2158 104.623 19.9166 106.88 18.2005C108.794 16.7444 109.733 13.7191 109.038 11.2446C108.637 9.81409 107.023 7.92441 105.572 7.18564C104.342 6.55927 101.61 6.33058 100.263 6.74118ZM114.736 6.70138C112.954 7.24222 111.353 8.59315 110.43 10.3361C109.729 11.6588 109.784 14.7516 110.533 16.1871C111.25 17.5589 112.881 18.9499 114.257 19.3607C115.669 19.7827 118.372 19.7512 119.452 19.2998C120.61 18.8158 121.925 17.6773 122.413 16.7356C122.878 15.8387 122.826 15.7734 121.044 15.0323L119.707 14.4759L118.803 15.3777C116.24 17.9338 112.513 14.8493 114.11 11.4932C114.968 9.69006 117.489 9.3637 118.902 10.8728C119.291 11.2883 119.676 11.6281 119.758 11.6281C119.839 11.6281 120.556 11.341 121.351 10.9903C122.714 10.3893 122.78 10.3188 122.494 9.76293C121.852 8.51356 120.322 7.22077 119.035 6.83989C117.673 6.43627 115.808 6.37632 114.736 6.70138ZM126.861 6.76857C125.948 7.01069 123.548 8.84612 123.548 9.3022C123.548 9.42003 124.14 9.87972 124.863 10.3234L126.178 11.1304L127.074 10.3456C128.516 9.08333 130.742 9.30401 131.172 10.7518C131.41 11.556 130.906 11.8004 128.687 11.9596C125.106 12.2159 123.292 13.5464 123.29 15.9181C123.288 18.0845 125.106 19.6375 127.646 19.638C129.101 19.6385 129.786 19.3923 130.738 18.5277L131.321 17.9979V18.6892C131.321 19.3724 131.342 19.3801 133.135 19.3801H134.949L134.947 15.1811C134.947 12.8718 134.817 10.5195 134.66 9.95441C134.293 8.63708 132.766 7.11405 131.445 6.74816C130.214 6.40732 128.189 6.41637 126.861 6.76857ZM6.27668 7.21406C6.88821 7.88771 6.70138 8.81589 5.86028 9.28515C5.22596 9.63916 5.11894 9.63089 4.62946 9.18928C3.97078 8.5947 3.92414 7.35927 4.54706 6.99751C5.23476 6.59802 5.77969 6.66624 6.27668 7.21406ZM38.8156 19.3801H42.4433V16.271C42.4433 11.8203 43.0714 10.6322 45.5501 10.3947L46.8483 10.2704V6.71844H45.7776C44.6593 6.71844 43.1629 7.4536 42.712 8.22441C42.5148 8.5611 42.4573 8.4425 42.4511 7.68745L42.4433 6.71844H38.8156V19.3801ZM47.8848 19.3801H51.5125V6.71844H47.8848V19.3801ZM32.7753 10.4735C33.4601 10.9211 34.1515 12.2885 34.1515 13.1958C34.1515 14.1209 33.3448 15.5059 32.5747 15.9031C32.1734 16.1101 31.3613 16.2793 30.77 16.2793C29.8926 16.2793 29.5324 16.1175 28.8136 15.4007C28.0642 14.6534 27.9326 14.3426 27.9326 13.3206C27.9326 12.6599 28.1015 11.7937 28.3078 11.3955C29.0735 9.91926 31.2421 9.47171 32.7753 10.4735ZM60.6547 10.1712C61.819 10.6627 62.4165 11.4183 62.5756 12.5997C62.8394 14.562 61.5471 16.0209 59.5452 16.0209C57.5432 16.0209 56.251 14.562 56.5148 12.5997C56.6708 11.441 57.2629 10.673 58.3792 10.1818C59.3737 9.74407 59.6398 9.74277 60.6547 10.1712ZM104.567 10.9624C105.228 11.6821 105.409 12.1046 105.409 12.9291C105.409 14.1477 104.88 15.3015 104.058 15.8759C103.264 16.4305 101.563 16.3806 100.565 15.7739C98.9899 14.8162 98.7715 12.0963 100.165 10.8012C101.099 9.93399 101.452 9.81358 102.688 9.93994C103.468 10.0195 103.934 10.273 104.567 10.9624ZM131.104 14.9873C130.814 17.115 127.175 17.8382 127.175 15.7682C127.175 14.6643 128.015 14.1782 129.767 14.2682C131.122 14.3377 131.187 14.3731 131.104 14.9873Z" fill="#8C8C8C"/>
</svg>
