<svg width="104" height="24" viewBox="0 0 104 24" fill="none" xmlns="http://www.w3.org/2000/svg">
<path d="M11.7737 0.00208188C4.98119 0.11241 0 4.65593 0 11.7671C0 18.9084 4.94093 23.151 11.7737 23.3616C15.4568 23.4719 18.2442 22.6094 21.0417 21.1149V10.062H12.3876L12.0655 13.9135H16.6845V18.6175C15.3863 19.1992 13.9071 19.4901 11.814 19.4399C7.37618 19.3196 4.52835 16.1301 4.58873 11.5264C4.64911 7.27373 7.22524 4.16447 11.4919 3.96387C14.1083 3.84352 16.3021 4.58572 17.7914 5.84949L20.6895 2.92077C18.2744 0.804469 15.2153 -0.0480674 11.7737 0.00208188ZM50.0232 3.32196V17.7248C50.0232 21.2854 51.1502 23.0707 55.0346 23.0707C56.0912 23.0707 56.9465 22.9404 57.9327 22.6796L58.2145 19.2594C57.3289 19.5503 56.6346 19.6205 56.0006 19.6205C54.5314 19.6205 54.1389 18.8382 54.1389 17.4139V11.1352H57.9327L58.2145 7.60471H54.1389V3.32196H50.0232ZM30.2293 7.20352C27.8343 7.20352 25.5902 7.88555 23.4267 9.63074L25.7915 12.0178C26.8883 10.9948 28.3676 10.4131 29.867 10.4131C31.95 10.4131 33.0469 11.3158 33.0469 12.9807V13.1613H32.3324C28.6997 13.1613 22.9135 13.5324 22.994 18.5774C23.0543 21.7869 25.7009 23.1811 28.5085 23.1811C30.3701 23.1811 32.1915 22.6696 33.2985 21.2955L33.3689 22.7899H37.0318V12.8403C37.0318 9.40006 34.9589 7.20352 30.2293 7.20352ZM68.519 7.20352C66.2749 7.20352 64.7554 8.21653 63.9403 9.52041L63.8296 7.59468H60.0359V22.7899H64.1516V14.5153C64.1516 12.5996 65.0472 10.9447 67.3315 10.9447C69.7064 10.9447 69.8372 13.081 69.8372 14.756V22.7799H73.9832V13.2214C73.9932 10.1623 72.6649 7.20352 68.519 7.20352ZM83.6839 7.20352C79.2461 7.20352 75.8448 10.4231 75.8448 15.1873C75.8448 19.9615 79.2663 23.171 83.855 23.171C86.4714 23.171 88.7456 22.3085 90.6576 19.9615L87.9708 17.9254C86.6123 19.2995 85.6059 19.8311 83.7443 19.781C81.8323 19.7308 80.2726 18.5473 79.9505 16.6115H91.2714V15.3979C91.2714 10.1623 88.5745 7.20352 83.6839 7.20352ZM39.608 7.59468V22.7899H43.7539V14.766C43.7539 12.9907 44.9112 11.1252 47.2257 11.1252H48.3326L48.6546 7.59468H47.6181C45.847 7.59468 44.4282 8.18644 43.6131 9.4803L43.5024 7.59468H39.608ZM93.1331 7.59468V22.7899H97.2488V14.766C97.2488 12.9907 98.4363 11.1252 100.751 11.1252H102.22L102.502 7.59468H101.103C99.3419 7.59468 97.913 8.18644 97.0979 9.4803L97.0275 7.59468H93.1331ZM83.5833 10.4131C85.5758 10.3328 87.0349 11.5264 87.1657 13.4421H79.9707C80.2424 11.7571 81.5807 10.4933 83.5833 10.4131ZM32.4834 16.1602H33.057V16.8021C33.057 20.2524 27.1399 21.1651 27.1198 18.2965C27.1097 16.2605 30.5412 16.1602 32.4834 16.1602ZM100.972 18.9786C99.8451 18.9786 98.8992 19.8411 98.8992 21.0146C98.8992 22.1982 99.8451 23.0808 100.972 23.0808C102.089 23.0808 103.045 22.1982 103.045 21.0146C103.045 19.8311 102.089 18.9786 100.972 18.9786ZM100.972 19.3296C101.898 19.3296 102.653 20.0417 102.653 21.0046C102.653 21.9875 101.898 22.7197 100.972 22.7197C100.036 22.7197 99.2916 21.9875 99.2916 21.0046C99.2916 20.0417 100.026 19.3296 100.972 19.3296ZM100.187 19.8612V22.2182H100.55V21.1851H100.942L101.586 22.2182H101.978L101.294 21.1851C101.636 21.145 101.938 20.9344 101.938 20.5031C101.938 20.0317 101.636 19.8612 101.083 19.8612H100.187ZM100.539 20.1521H101.043C101.294 20.1521 101.546 20.2122 101.546 20.5131C101.546 20.8742 101.274 20.9043 100.972 20.9043H100.539V20.1521Z" fill="#8C8C8C"/>
</svg>
