<svg width="128" height="44" viewBox="0 0 128 44" fill="none" xmlns="http://www.w3.org/2000/svg">
<path d="M19.7141 21.2244H25.1957V28.9241C23.4851 29.4742 21.3254 29.7745 19.0806 29.7745C9.98182 29.7745 4.63345 21.9825 4.63345 14.3724C4.63345 6.90968 9.47088 1.67466 16.2181 1.67466C20.489 1.67466 22.9728 3.12089 25.1957 5.13664V7.64797L29.3642 3.47941C26.7281 1.69571 22.9104 0 17.4535 0C5.47533 0 0 8.56962 0 15.612C0 25.6373 7.30163 31.6754 16.4776 31.6754C20.9264 31.6754 24.8762 30.9959 29.4407 29.7272V21.7726C29.4407 21.3665 29.6194 21.0862 29.8869 20.842L31.3274 19.4015H21.5498L19.7141 21.2244Z" fill="#808080"/>
<path d="M44.2727 10.7617C37.3787 10.7617 33.1064 15.8 33.1064 21.1469C33.1064 25.7627 36.5478 31.2427 43.5214 31.2427C50.2284 31.2427 54.3439 26.1944 54.3439 20.7528C54.3439 15.6838 50.3223 10.7617 44.2727 10.7617ZM43.1298 12.2305C47.9901 12.2305 50.1562 18.5641 50.1562 23.0813C50.1562 29.7985 45.1168 29.9313 44.5145 29.9313C42.2079 29.9313 40.5963 28.5377 39.3903 26.7093C38.3275 25.024 37.2901 21.8945 37.2901 18.8355C37.2901 15.7889 38.2869 14.3019 39.8572 13.2069C41.1411 12.3873 42.3427 12.2305 43.1298 12.2305Z" fill="#808080"/>
<path d="M89.5253 10.7598C83.5036 10.7598 80.2469 14.5729 80.2469 18.8291C80.2469 22.0705 82.5692 25.7257 87.3582 25.7257H88.5692C88.5692 25.7257 88.2396 26.5266 88.2374 27.3025C88.2374 28.4438 88.6481 29.0855 89.5197 30.0728C81.2795 30.5754 77.9658 33.8988 77.9658 37.4709C77.9658 40.5985 80.9616 43.6787 87.2566 43.6787C94.71 43.6787 98.5695 39.5403 98.5695 35.4802C98.5695 32.6179 97.1436 31.0485 93.5313 28.3418C92.4687 27.5158 92.2633 26.9905 92.2633 26.3719C92.2633 25.4865 92.7925 24.9011 92.9864 24.6804C93.3282 24.3195 93.9206 23.9074 94.1416 23.71C95.3544 22.6816 97.0692 21.1597 97.0692 18.1244C97.0692 16.0413 96.2036 14.2495 94.2293 12.57H96.6386L98.4488 10.7598H89.5253ZM87.8645 12.115C88.9568 12.115 89.8688 12.502 90.8324 13.3022C91.9014 14.2652 93.6078 16.8536 93.6078 20.0577C93.6078 23.514 90.9225 24.4605 89.4691 24.4605C88.7582 24.4605 87.9048 24.262 87.1829 23.7686C85.5792 22.7288 83.9888 19.9616 83.9888 16.668C83.9888 13.6965 85.7589 12.115 87.8645 12.115ZM90.2484 31.3854C90.7076 31.3854 91.0379 31.4229 91.0379 31.4229C91.0379 31.4229 92.1218 32.1975 92.8796 32.7753C94.6424 34.1699 95.7431 35.2347 95.7431 37.1327C95.7431 39.7414 93.3232 41.7876 89.4026 41.7876C85.0998 41.7876 81.8113 39.7848 81.8113 36.5136C81.8113 33.804 84.0639 31.4715 90.2484 31.3854Z" fill="#808080"/>
<path d="M99.709 30.7815H107.976L109.235 29.5227L106.865 29.226C106.227 29.1478 105.848 28.5969 105.848 28.0624V3.0932C105.848 2.60161 106.075 2.34933 106.243 2.18877L107.734 0.697266H100.685L98.8496 2.5323H101.59V28.3977C101.59 28.766 101.475 29.015 101.225 29.2719L99.709 30.7815Z" fill="#808080"/>
<path d="M119.039 10.7617C114.423 10.7617 109.52 14.2802 109.52 20.5959C109.52 25.8127 113.037 31.2435 119.611 31.2435C121.251 31.2435 122.599 31.0326 123.864 30.4516C125.22 29.8274 126.526 28.8128 127.478 27.5371C125.679 28.4441 124.213 29.0401 122.263 29.0401C118.559 29.0401 114.989 26.3686 113.739 21.4567L126.821 16.1684C126.065 13.4737 123.934 10.7617 119.039 10.7617ZM118.184 12.207C120.661 12.207 122.451 14.2444 122.451 15.8398C122.451 16.356 122.127 16.6275 121.488 16.8791L113.445 20.1318C113.445 20.1318 113.228 19.1199 113.228 18.024C113.228 13.4342 116.547 12.207 118.184 12.207Z" fill="#808080"/>
<path d="M67.6677 10.7617C60.7737 10.7617 56.501 15.8 56.501 21.1469C56.501 25.7627 59.9424 31.2427 66.9161 31.2427C73.623 31.2427 77.7385 26.1944 77.7385 20.7528C77.7385 15.6838 73.7173 10.7617 67.6677 10.7617ZM66.5244 12.2305C71.3847 12.2305 73.5509 18.5641 73.5509 23.0813C73.5509 29.7985 68.5118 29.9313 67.9096 29.9313C65.603 29.9313 63.9909 28.5377 62.7849 26.7093C61.7221 25.024 60.6847 21.8945 60.6847 18.8355C60.6847 15.7889 61.6815 14.3019 63.2518 13.2069C64.5358 12.3873 65.7374 12.2305 66.5244 12.2305Z" fill="#808080"/>
</svg>
