<svg width="90" height="54" viewBox="0 0 90 54" fill="none" xmlns="http://www.w3.org/2000/svg">
<path fill-rule="evenodd" clip-rule="evenodd" d="M78.6201 2.60678V5.21356L78.2039 4.76421C77.5648 4.07461 76.6933 3.77321 75.3456 3.77571C72.5511 3.78104 70.7206 5.66057 70.2736 8.98394C69.6954 13.2811 71.6914 16.3776 75.0389 16.3763C76.7153 16.3756 77.7793 15.8758 78.4617 14.7683L78.7554 14.2916L78.8973 15.1848L79.0392 16.0779L80.9951 16.1248L82.9509 16.1717V8.08591V0H80.7855H78.6201V2.60678ZM0 8.4138V16.1612H2.16539H4.33077V13.1622V10.1632H6.91257H9.49438V13.1622V16.1612H11.6598H13.8251V8.4138V0.666439H11.6598H9.49438V3.49881V6.33117H6.91257H4.33077V3.49881V0.666439H2.16539H0V8.4138ZM19.3219 3.83386C18.0393 4.05528 17.186 4.49997 16.4298 5.34135C15.7543 6.09276 15.1327 7.5281 15.3771 7.77235C15.5107 7.90597 19.1873 8.49694 19.3312 8.40797C19.394 8.36915 19.491 8.10973 19.5466 7.83133C19.6565 7.28168 20.211 6.95646 20.7829 7.10591C21.1728 7.20804 21.4873 7.82283 21.4873 8.48344V8.95395L19.9465 9.06708C17.8423 9.22152 16.7876 9.54624 15.9582 10.2948C15.1017 11.0679 14.8236 11.721 14.8282 12.9486C14.8332 14.249 15.2763 15.1813 16.1706 15.7733C16.7483 16.1557 17.1009 16.252 18.1094 16.3029C19.6224 16.3794 20.588 16.054 21.3182 15.2221L21.8311 14.6378L22.1534 15.0247C22.3306 15.2373 22.478 15.4609 22.4812 15.5215C22.4842 15.582 22.8102 15.7883 23.2056 15.9797C24.0881 16.4071 25.6053 16.4444 26.4175 16.0589L26.984 15.79V14.2886V12.7873L26.4988 12.8844C26.2097 12.9423 25.947 12.9001 25.8485 12.7803C25.7576 12.6695 25.6556 11.2295 25.6218 9.58007C25.5702 7.06842 25.5104 6.48629 25.2532 5.99796C24.5733 4.70656 23.6765 4.11793 21.9655 3.84019C20.7802 3.64776 20.4059 3.64692 19.3219 3.83386ZM53.1352 3.83186C51.0884 4.17957 49.6186 5.47813 49.2294 7.28302C49.0978 7.89231 49.0162 7.85465 51.1364 8.16555C51.8235 8.26635 52.5919 8.38814 52.8437 8.43612C53.24 8.51177 53.3018 8.46994 53.3018 8.12573C53.3018 7.59508 53.6204 7.20604 54.1618 7.07559C54.7929 6.92364 55.3006 7.46812 55.3006 8.29684V8.92979L53.4267 9.11889C52.3962 9.22302 51.2745 9.42529 50.9343 9.56874C49.3525 10.2353 48.5431 11.5711 48.6687 13.308C48.8109 15.2771 50.0555 16.3309 52.2301 16.3241C53.5648 16.3199 54.4616 15.9759 55.2068 15.1825L55.6962 14.6615L56.1939 15.2655C56.4676 15.5975 56.9383 15.9726 57.24 16.0985C57.9559 16.3977 59.4896 16.3914 60.2197 16.0863L60.7973 15.8449V14.319V12.7928L60.3649 12.9014C59.5404 13.1084 59.4648 12.8616 59.4648 9.9666C59.4648 6.95413 59.3129 6.12724 58.6011 5.26354C57.9592 4.48447 57.11 4.05628 55.7788 3.84019C54.5964 3.64826 54.2236 3.64709 53.1352 3.83186ZM27.8948 4.20223C27.8495 4.32036 27.8322 7.04077 27.8563 10.2475L27.9002 16.0779L30.0239 16.1245L32.1476 16.1712L32.148 13.2088C32.1481 9.77633 32.2806 9.3 33.3834 8.76151C33.9439 8.48777 34.1556 8.46761 34.8825 8.61839C35.3479 8.71503 35.7485 8.77634 35.7725 8.75468C35.7965 8.73302 35.8648 7.64373 35.9242 6.33401L36.0327 3.95265L35.2145 4.07361C34.0477 4.24605 32.8574 4.93882 32.4241 5.69806C32.2263 6.04494 32.0199 6.32918 31.9657 6.32984C31.9114 6.33068 31.799 5.82518 31.7159 5.20656L31.5646 4.08194L29.771 4.03463C28.4252 3.99914 27.9568 4.04096 27.8948 4.20223ZM36.3142 4.20207C36.3153 4.31919 37.2336 7.03927 38.3548 10.2465L40.3931 16.0779H42.7049H45.0165L47.0816 10.4131C48.2175 7.29751 49.1902 4.57977 49.2435 4.37351C49.34 3.99964 49.3345 3.99864 47.2729 3.99864H45.2056L44.8105 5.20656C44.5933 5.871 44.0581 7.57658 43.6212 8.99693C42.9487 11.1832 42.81 11.5027 42.7167 11.0796C42.6561 10.8047 42.1834 9.11773 41.6662 7.33083L40.7259 4.08194L38.5189 4.03546C36.8124 3.99947 36.3123 4.03729 36.3142 4.20207ZM61.7968 10.0799V16.1612H63.8632H65.9298L65.9869 13.0296C66.0516 9.50126 66.1455 9.18337 67.2649 8.71103C67.7544 8.50427 68.0426 8.48677 68.7093 8.62339C69.1674 8.71736 69.5635 8.77451 69.5896 8.75085C69.6804 8.66821 69.9111 4.24789 69.8322 4.1076C69.7146 3.89917 68.3077 4.15092 67.6148 4.50446C67.0005 4.81802 65.961 5.87116 65.961 6.18023C65.961 6.27403 65.8948 6.31002 65.814 6.26003C65.7333 6.21005 65.6148 5.6809 65.5509 5.08393L65.4348 3.99864H63.6157H61.7968V10.0799ZM77.3379 7.00878C78.3486 7.28952 78.619 7.90214 78.619 9.91329C78.619 11.2912 78.5607 11.6749 78.2827 12.1309C77.5629 13.3118 75.8796 13.3921 75.0889 12.2833C74.7494 11.8071 74.7058 11.5531 74.7058 10.0504C74.7058 8.13656 74.9103 7.66172 75.9669 7.1229C76.6396 6.77969 76.5424 6.78785 77.3379 7.00878ZM21.4873 11.8215C21.4873 13.1442 20.3278 13.9148 19.359 13.236C18.6983 12.7731 18.9591 11.7648 19.8216 11.4476C19.959 11.3971 20.3899 11.3498 20.7794 11.3426C21.4553 11.3301 21.4873 11.3516 21.4873 11.8215ZM55.3006 11.8185C55.3006 12.6014 55.0329 13.0945 54.4851 13.3216C53.4409 13.7543 52.5157 13.0071 52.9405 12.0744C53.1724 11.5657 53.6482 11.3541 54.5927 11.34C55.2671 11.33 55.3006 11.3526 55.3006 11.8185ZM38.6964 17.6423C37.8563 18.0347 37.4778 18.6905 37.4778 19.7546C37.4778 20.4357 37.5581 20.6125 38.1244 21.1791C38.7152 21.7701 38.8483 21.8259 39.6652 21.8252C40.77 21.8246 41.5669 21.3802 41.9019 20.578C42.2283 19.7966 42.2022 19.178 41.8159 18.5443C41.142 17.4389 39.9011 17.0802 38.6964 17.6423ZM0 26.9908V34.6549H4.12922C8.62473 34.6549 9.68377 34.5094 10.8671 33.7298C12.2807 32.7983 12.891 30.748 12.2524 29.0756C11.9271 28.2234 10.9134 27.2667 10.0249 26.9735L9.43808 26.7797L9.92429 26.5318C11.1935 25.8845 11.819 24.7987 11.819 23.2421C11.819 21.9888 11.4134 21.06 10.5569 20.3516C9.45324 19.4385 8.75249 19.3267 4.13389 19.3267H0V26.9908ZM29.5658 22.4295C27.2617 23.0023 26.1095 24.3217 26.1095 26.388C26.1095 28.5666 27.2347 29.5486 30.5229 30.2405C31.8515 30.5201 32.369 30.8313 32.2794 31.297C32.1996 31.7112 31.4727 32.0086 30.8151 31.8961C30.207 31.7922 29.316 31.0862 29.316 30.7084C29.316 30.5881 29.2415 30.4896 29.1506 30.4896C28.9932 30.4896 25.9755 31.6492 25.8337 31.7642C25.648 31.9148 26.461 33.252 27.0392 33.747C28.0464 34.6094 29.1004 34.9054 31.1482 34.9011C33.861 34.8953 35.3504 34.214 36.1719 32.6032C36.4446 32.0687 36.5002 31.6984 36.4518 30.7397C36.3398 28.5221 35.2673 27.5536 32.2897 26.9808C30.2822 26.5946 29.7774 26.2199 30.4105 25.5864C30.8507 25.1461 31.6208 25.2604 32.1691 25.8475L32.6575 26.3703L34.4305 26.0961C35.4057 25.9452 36.2351 25.7902 36.2735 25.7517C36.4359 25.5894 36.0885 24.6299 35.6466 24.0196C35.3429 23.6003 34.8192 23.1901 34.2023 22.8882C33.3581 22.475 33.0215 22.4102 31.5668 22.3807C30.6495 22.362 29.7491 22.384 29.5658 22.4295ZM49.6806 22.7354C49.0363 23.0355 48.68 23.3434 48.3199 23.9115L47.8319 24.6813L47.7192 23.7789C47.6571 23.2827 47.5514 22.7876 47.4841 22.6786C47.3984 22.5402 46.814 22.4948 45.5429 22.528L43.7241 22.5756L43.6805 28.6152L43.6367 34.6549H45.8042H47.9716V30.914C47.9716 26.8675 48.0421 26.4688 48.8286 26.0619C49.481 25.7246 49.884 25.7662 50.4192 26.2264L50.8865 26.6283L50.939 30.6416L50.9917 34.6549H53.0628H55.134V29.8178C55.134 24.6394 55.0797 24.2411 54.2516 23.353C53.2242 22.2512 51.2833 21.989 49.6806 22.7354ZM60.0198 22.625C58.5172 23.1604 57.51 24.1274 56.7644 25.7504C56.4348 26.468 56.3861 26.843 56.3868 28.6569C56.3878 31.0917 56.6198 31.788 57.8797 33.1352C60.0318 35.4366 64.3411 35.6245 66.4558 33.5094C67.2372 32.7277 67.7974 31.5802 67.5197 31.3297C67.4411 31.2587 66.6709 30.9876 65.8082 30.727C64.2874 30.2678 64.2341 30.263 64.0592 30.5699C63.4774 31.5909 62.6336 31.9025 61.5579 31.4934C61.0664 31.3065 60.4657 30.4133 60.4649 29.8681L60.4642 29.4964L64.0871 29.4516L67.7099 29.4066L67.7599 28.3488C67.8823 25.7591 66.935 23.8444 65.0448 22.861C63.9187 22.2751 61.3417 22.1541 60.0198 22.625ZM71.541 22.5588C70.4993 22.8884 69.8845 23.2594 69.3261 23.8955C68.3955 24.9555 68.185 26.7106 68.8343 27.9946C69.3593 29.0331 70.2494 29.5912 72.0407 30.0059C74.1359 30.4909 74.6225 30.7215 74.6225 31.23C74.6225 31.5632 74.5009 31.6789 73.9899 31.8322C73.1908 32.0716 72.289 31.7392 71.8541 31.0451C71.6916 30.7853 71.5392 30.5449 71.5155 30.5108C71.4624 30.4343 68.4243 31.6362 68.2516 31.8022C68.1831 31.868 68.3709 32.3298 68.6687 32.8285C69.4221 34.0894 70.8081 34.8085 72.7409 34.9409C76.9778 35.2315 79.5386 33.1249 78.7822 29.9713C78.3909 28.3398 77.0735 27.3777 74.7013 26.9906C73.0827 26.7264 72.6237 26.527 72.6237 26.0876C72.6237 25.5751 72.9353 25.3247 73.5731 25.3247C74.1025 25.3247 74.6653 25.7029 74.818 26.1614C74.8745 26.3307 75.2716 26.3175 76.7842 26.0969C77.8266 25.945 78.7089 25.7912 78.7447 25.7554C78.7805 25.7196 78.6441 25.3049 78.4416 24.8339C77.9908 23.7861 77.0732 22.9683 75.9352 22.6008C74.918 22.2721 72.5196 22.2492 71.541 22.5588ZM82.539 22.5941C80.7577 23.1601 79.7638 24.2752 79.651 25.8344C79.5519 27.2064 79.7216 27.9055 80.32 28.5869C80.9959 29.3572 81.7396 29.7202 83.3673 30.0746C85.317 30.4991 85.8184 30.734 85.7529 31.1927C85.6805 31.701 84.9442 32.0344 84.2015 31.8951C83.6575 31.793 82.9214 31.151 82.7465 30.6261C82.6629 30.3751 79.2864 31.6324 79.2864 31.9145C79.2864 32.309 80.3095 33.666 80.9016 34.0571C83.0458 35.4729 87.3733 35.1915 88.9858 33.5312C89.7572 32.7373 89.9476 32.221 89.9431 30.937C89.9373 29.2967 89.305 28.2697 87.834 27.5116C87.5032 27.341 86.197 27.0366 84.5769 26.7524C83.7791 26.6124 83.4609 26.1068 83.8795 25.6441C84.3471 25.1274 85.1796 25.2236 85.6705 25.851L86.0822 26.3772L87.877 26.0994C88.8642 25.9467 89.7034 25.7902 89.7419 25.7517C89.9043 25.5894 89.5568 24.6299 89.1149 24.0196C88.8113 23.6003 88.2876 23.1901 87.6706 22.8882C86.8323 22.4778 86.48 22.4089 85.0352 22.3727C83.8744 22.3436 83.1155 22.4109 82.539 22.5941ZM13.3914 22.7273C13.3419 22.8564 13.3254 25.0118 13.3551 27.5173L13.4087 32.0724L13.8791 33.0306C14.2366 33.7587 14.5266 34.0927 15.0867 34.4209C15.9655 34.9361 17.4162 35.1127 18.4569 34.831C19.2374 34.6199 20.4009 33.6784 20.5955 33.1007C20.6924 32.8128 20.7542 32.9263 20.8975 33.6552L21.0775 34.5715L23.0334 34.6185L24.9894 34.6655L24.9457 28.6206L24.9019 22.5756L22.7782 22.529L20.6544 22.4823L20.6471 26.1111C20.6396 29.8693 20.5297 30.6321 19.8949 31.3337C19.4891 31.7822 18.4744 31.7667 18.0568 31.3055C17.7655 30.9838 17.7352 30.6091 17.6875 26.7237L17.6354 22.4923H15.5585C13.9253 22.4923 13.4624 22.5425 13.3914 22.7273ZM37.7603 22.5985C37.6965 22.6623 37.6444 25.401 37.6444 28.6847V34.6549H39.8118H41.9793L41.9355 28.6152L41.8919 22.5756L39.8841 22.5292C38.7797 22.5035 37.8241 22.5348 37.7603 22.5985ZM7.08647 23.2061C7.42227 23.4952 7.52888 23.7407 7.52888 24.2262C7.52888 25.2366 7.08664 25.5551 5.57853 25.6313L4.33077 25.6944V24.2599V22.8256H5.48742C6.45201 22.8256 6.71769 22.8887 7.08647 23.2061ZM63.2837 25.9303C63.4736 26.1717 63.629 26.5841 63.629 26.8467V27.324H62.1577C61.3484 27.324 60.6411 27.2789 60.586 27.2236C60.4354 27.0731 60.772 26.2919 61.1706 25.8662C61.6951 25.306 62.8196 25.3402 63.2837 25.9303ZM7.38163 28.6819C7.87601 28.9421 7.98977 29.1467 7.99277 29.7815C7.99727 30.7432 7.55653 30.9894 5.82988 30.9894H4.33077V29.7399V28.4903H5.67431C6.4132 28.4903 7.18142 28.5764 7.38163 28.6819ZM39.0466 36.1492C38.3543 36.4292 37.811 37.2895 37.811 38.1052C37.811 39.1543 38.2977 39.8902 39.2263 40.2449C40.1877 40.6122 40.9964 40.4579 41.7551 39.7623C42.8256 38.7809 42.6621 37.0682 41.4256 36.3143C40.8676 35.9739 39.6828 35.8918 39.0466 36.1492ZM0 45.4702V53.1485H2.16539H4.33077V50.7327V48.3169H5.31169C6.72269 48.3169 6.92074 48.5338 7.51872 50.7345C7.79172 51.7392 8.13468 52.6934 8.28093 52.8548C8.51029 53.1084 8.86159 53.1485 10.8527 53.1485C12.1212 53.1485 13.1589 53.0982 13.1589 53.0368C13.1589 52.9753 13.0523 52.8065 12.9219 52.6619C12.7916 52.5171 12.4093 51.4616 12.0724 50.3162C11.3451 47.8435 11.0385 47.29 10.1528 46.8519C9.53469 46.5458 9.5147 46.5151 9.87549 46.4247C10.6089 46.2404 11.6093 45.3605 11.9977 44.5581C12.7503 43.0033 12.3805 40.508 11.218 39.2936C10.9848 39.0502 10.3331 38.638 9.76938 38.3779L8.74482 37.9049L4.37241 37.8484L0 37.7918V45.4702ZM17.1447 41.0365C15.4245 41.5245 14.284 42.5012 13.507 44.1516C13.1146 44.9852 13.0756 45.2566 13.0756 47.1536C13.0756 49.1761 13.0923 49.2729 13.6253 50.3565C14.6187 52.3758 16.2362 53.3377 18.8222 53.4464C20.7037 53.5256 21.948 53.1507 23.0202 52.1817C23.6738 51.5912 24.3189 50.5499 24.3189 50.0858C24.3189 49.9225 23.7574 49.6677 22.6143 49.3125C21.0067 48.8129 20.8998 48.7997 20.7404 49.0814C20.3032 49.8535 19.8434 50.1496 19.0822 50.1496C18.1126 50.1496 17.3584 49.528 17.2121 48.6084L17.1129 47.9836H20.7992H24.4855L24.4828 46.859C24.4763 43.9993 23.441 42.1145 21.3933 41.2344C20.5317 40.8642 18.1444 40.7529 17.1447 41.0365ZM47.652 41.0733C46.5083 41.3946 45.8514 41.8019 45.016 42.7084C43.957 43.8576 43.5752 45.0496 43.5667 47.2339C43.56 48.9122 43.6002 49.1549 44.0424 50.1147C44.7044 51.5518 45.9356 52.6649 47.4031 53.1534C48.3109 53.4556 48.7728 53.5076 50.0287 53.4489C51.8147 53.3658 52.7653 53.0078 53.7107 52.0619C54.34 51.4325 55.0158 50.1959 54.8644 49.951C54.8202 49.8793 54.023 49.5843 53.0929 49.2954C51.9081 48.9272 51.3823 48.8285 51.3364 48.966C51.3005 49.0739 51.0843 49.3843 50.8557 49.6559C50.5043 50.0738 50.3207 50.1496 49.6596 50.1496C48.7302 50.1496 48.1918 49.8187 47.8707 49.0501C47.4054 47.9365 47.2529 47.9836 51.3218 47.9836H55.0053L54.9361 46.2759C54.832 43.6983 54.0457 42.2892 52.2103 41.3909C51.0668 40.8312 49.0215 40.6888 47.652 41.0733ZM24.1524 41.3254C24.1524 41.4204 25.0642 44.1215 26.1785 47.3277L28.2046 53.1574L30.5471 53.1112L32.8895 53.0652L35.0139 47.2339C36.1822 44.0267 37.1397 41.3464 37.1415 41.2776C37.1432 41.2088 36.2137 41.1526 35.0759 41.1526H33.007L32.2211 43.6101C31.7887 44.9618 31.268 46.6674 31.0638 47.4005L30.6925 48.7334L30.5099 48.0669C30.4095 47.7004 29.9311 45.995 29.4469 44.2771L28.5664 41.1536L26.3594 41.1531C24.9466 41.1528 24.1524 41.2148 24.1524 41.3254ZM37.9775 47.1506V53.1485H40.1429H42.3083V47.1506V41.1526H40.1429H37.9775V47.1506ZM54.8432 41.3559C54.8882 41.4732 55.6279 44.1761 56.4869 47.3624L58.049 53.1555L60.4584 53.1104L62.8676 53.0652L63.3154 50.8993C63.5617 49.7081 63.8592 48.1711 63.9766 47.4838C64.0941 46.7965 64.2167 46.3842 64.249 46.5675C64.2814 46.7507 64.5769 48.3084 64.9054 50.0289L65.5029 53.1572L67.9385 53.1112L70.374 53.0652L71.9742 47.1506L73.5743 41.2359L71.6513 41.1888C70.5935 41.1628 69.6456 41.1731 69.5448 41.2118C69.4441 41.2506 68.9935 42.9392 68.5434 44.9645L67.7254 48.6469L66.9799 44.8999L66.2343 41.1526H64.2924H62.3506L61.7436 44.11C61.4098 45.7364 61.0735 47.4422 60.9962 47.9003L60.8556 48.7334L60.6423 47.7337C60.5248 47.1839 60.1484 45.497 59.8056 43.985L59.1826 41.2359L56.9719 41.1893C55.23 41.1526 54.7787 41.188 54.8432 41.3559ZM7.16243 41.7778C8.18016 42.2863 8.25062 43.868 7.28252 44.4767C7.07898 44.6046 6.33175 44.7434 5.62167 44.7851L4.33077 44.8609V43.1733V41.4859L5.4551 41.4862C6.19167 41.4864 6.78049 41.5868 7.16243 41.7778ZM19.8083 44.2766C20.0043 44.4369 20.2099 44.8494 20.2648 45.1929L20.3649 45.8177H18.7607C17.8784 45.8177 17.1565 45.7779 17.1565 45.7291C17.1565 45.3987 17.687 44.4822 18.0088 44.2567C18.5162 43.9012 19.3605 43.9105 19.8083 44.2766ZM50.162 44.1649C50.4721 44.3311 50.9698 45.2432 50.9698 45.6458C50.9698 45.7519 50.3642 45.8177 49.3874 45.8177C47.9893 45.8177 47.8057 45.7837 47.8109 45.5261C47.8329 44.4457 49.2039 43.6521 50.162 44.1649Z" fill="#AEAEAE"/>
</svg>
