<svg width="126" height="36" viewBox="0 0 126 36" fill="none" xmlns="http://www.w3.org/2000/svg">
<path d="M13.6376 5.8291V15.8923H4.39923V5.8291H0V29.8049H4.39923V20.1266H13.6376V29.8599H18.0368V5.8291H13.6376ZM32.0044 22.0513C32.0044 24.0309 30.3547 25.6806 28.375 25.6806C26.3954 25.6806 24.7457 24.0309 24.7457 22.0513V11.8231H20.5664V22.1063C20.5664 26.3955 24.0308 29.8599 28.32 29.8599C32.6093 29.8599 36.0737 26.3955 36.0737 22.1063V11.8231H31.9494V22.0513H32.0044ZM62.799 12.8679C62.799 10.7782 64.1738 10.1184 65.7135 10.1184C66.9233 10.1184 68.573 11.0532 69.6178 12.208L72.3123 9.01854C70.9376 7.20386 68.188 5.88409 65.9334 5.88409C61.4242 5.88409 58.1798 8.52363 58.1798 12.9229C58.1798 21.0614 68.1331 18.4769 68.1331 22.9861C68.1331 24.3609 66.7583 25.6256 65.2186 25.6256C62.744 25.6256 61.9741 24.4158 60.8193 23.1511L57.7949 26.2855C59.7195 28.6501 62.0841 29.8599 64.9436 29.8599C69.2329 29.8599 72.6973 27.1654 72.6973 22.9861C72.7523 13.9677 62.799 16.7722 62.799 12.8679ZM124.223 26.0106C121.749 26.0106 121.089 24.9657 121.089 23.316V16.1123H124.883V12.4829H121.089V7.64378L116.855 9.51346V24.1959C116.855 27.9352 119.439 29.8599 123.013 29.8599C123.563 29.8599 124.113 29.8049 124.663 29.7499L125.708 25.9556C125.213 25.9556 124.663 26.0106 124.223 26.0106ZM47.8416 11.933C45.807 11.933 44.3222 12.5379 42.9475 13.9127V5.99407H38.7682V20.6215C38.7682 26.1205 42.7275 29.8599 47.1817 29.8599C52.1309 29.8599 56.4751 26.0656 56.4751 20.8965C56.4751 15.8373 52.4608 11.933 47.8416 11.933ZM47.7866 25.6806C45.2021 25.6806 43.0575 23.591 43.0575 20.9515C43.0575 18.3119 45.1471 16.2223 47.7866 16.2223C50.4262 16.2223 52.5158 18.3119 52.5158 20.9515C52.5158 23.591 50.4262 25.6806 47.7866 25.6806ZM93.0437 20.6765C93.0437 15.5074 88.6995 11.7131 83.7503 11.7131C79.2961 11.7131 75.3368 15.4524 75.3368 20.9515V35.5789H79.5161V27.6603C80.8908 29.035 82.3206 29.6399 84.4102 29.6399C89.0294 29.6399 93.0437 25.7356 93.0437 20.6765ZM89.0844 20.6215C89.0844 23.2061 86.9948 25.3507 84.3552 25.3507C81.7707 25.3507 79.626 23.261 79.626 20.6215C79.626 18.037 81.7157 15.8923 84.3552 15.8923C86.9948 15.8923 89.0844 18.037 89.0844 20.6215Z" fill="#8C8C8C"/>
<path d="M106.461 11.493V7.31372C107.616 6.76381 108.331 5.66401 108.331 4.39923V4.34424C108.331 2.58455 106.901 1.09981 105.087 1.09981H105.032C103.272 1.09981 101.787 2.52956 101.787 4.34424V4.45422C101.787 5.719 102.502 6.8188 103.657 7.36871V11.493C102.062 11.7129 100.577 12.3728 99.3126 13.4176L87.8196 4.50921C87.8746 4.23426 87.9296 3.90432 87.9296 3.62936C87.9296 1.64971 86.3349 0 84.3003 0C82.3206 0 80.6709 1.59472 80.6709 3.62936C80.6709 5.66401 82.2656 7.25873 84.3003 7.25873C84.9052 7.25873 85.565 7.09376 86.06 6.76381L97.333 15.5623C95.2433 18.6967 95.2983 22.766 97.498 25.8455L94.0886 29.2549C93.8136 29.1449 93.5386 29.1449 93.2087 29.0899C91.559 29.0899 90.2392 30.4097 90.2392 32.0594C90.2392 33.7091 91.559 35.0289 93.2087 35.0289C94.8584 35.0289 96.1782 33.7091 96.1782 32.0594C96.1782 31.7844 96.1232 31.4545 96.0132 31.1795L99.4226 27.7701C103.437 30.8496 109.211 30.1347 112.29 26.1204C115.37 22.1061 114.655 16.3321 110.641 13.2527C109.486 12.3728 108.001 11.7129 106.461 11.493ZM105.087 25.2406C102.502 25.2956 100.302 23.2609 100.247 20.6764C100.192 18.0918 102.227 15.8922 104.812 15.8372C104.922 15.8372 104.977 15.8372 105.087 15.8372C107.671 15.9472 109.706 18.0918 109.596 20.6764C109.541 23.2059 107.561 25.1856 105.087 25.2406Z" fill="#8C8C8C"/>
</svg>
