<svg width="189" height="21" viewBox="0 0 189 21" fill="none" xmlns="http://www.w3.org/2000/svg">
<path fill-rule="evenodd" clip-rule="evenodd" d="M92.9598 0.1028C91.4767 0.409517 90.3634 1.5471 90.1701 2.9535C90.083 3.58641 90.1786 4.45566 90.3968 5.01516C90.4872 5.24702 90.5608 5.48145 90.5603 5.53611C90.5598 5.59069 90.3356 5.76164 90.0619 5.91592C88.921 6.55917 88.1384 7.34018 87.6927 8.28021C87.0103 9.71947 87.0252 11.2651 87.735 12.6882C88.5871 14.3965 90.1521 15.4704 92.2939 15.8163C94.54 16.1791 97.3959 15.62 98.8063 14.5414L99.1937 14.2451L99.7201 14.6372C101.186 15.7286 102.514 16.1293 103.657 15.825C104.583 15.5786 105.551 14.8755 105.551 14.4489C105.551 14.1716 105.399 14.1346 104.711 14.245C104.172 14.3314 104.076 14.3245 103.607 14.168C102.548 13.8145 101.199 12.8324 101.199 12.4155C101.199 12.3296 101.362 11.9342 101.561 11.5367C101.986 10.687 102.258 9.80226 102.45 8.63999C102.527 8.17763 102.628 7.75165 102.675 7.69331C102.722 7.63496 102.901 7.51586 103.073 7.42866C103.334 7.29586 103.381 7.23495 103.36 7.05382L103.335 6.83759L101.001 6.82205C98.6725 6.8065 98.4592 6.8283 98.4592 7.08212C98.4592 7.27847 98.7005 7.42722 99.1644 7.51674C99.8535 7.64979 100.26 7.81633 100.497 8.06237C101.131 8.71997 101.104 10.2756 100.44 11.403C100.322 11.603 100.182 11.7665 100.128 11.7665C99.9836 11.7665 98.7533 10.8285 97.845 10.0259C95.0654 7.5698 92.8559 4.80061 92.4234 3.23104C92.1963 2.40682 92.4018 1.53925 92.9091 1.17939C93.1501 1.00844 93.2659 0.987128 93.9461 0.98809C94.6183 0.989052 94.7676 1.01638 95.1704 1.21209C96.1221 1.67453 96.8843 2.59885 97.3366 3.83886C97.616 4.60497 97.7939 4.83659 98.0426 4.75813C98.2921 4.67935 98.3099 4.51208 98.1756 3.50794C98.1081 3.00302 98.0299 2.14787 98.0017 1.60761C97.9696 0.988088 97.9143 0.595295 97.8521 0.544002C97.7434 0.454239 97.3844 0.55546 97.2937 0.701485C97.203 0.84743 96.8274 0.795814 96.1825 0.548806C94.877 0.0489378 93.8845 -0.088427 92.9598 0.1028ZM113.066 0.073548C112.16 0.178378 111.544 0.360946 110.669 0.784595C108.205 1.977 106.616 4.48508 106.276 7.7212C106.016 10.185 107.048 12.8268 108.877 14.3832C111.178 16.3406 115.533 16.4571 118.327 14.6359C119.787 13.6844 121.076 11.9891 120.656 11.572C120.587 11.5027 120.504 11.446 120.473 11.446C120.357 11.446 120 11.731 119.37 12.327C118.35 13.2917 117.578 13.7706 116.511 14.1013C115.724 14.3451 114.235 14.3649 113.494 14.1414C111.136 13.4308 109.548 11.2177 109.09 8.00547C108.9 6.66905 109.134 5.07111 109.696 3.87461C111.078 0.930224 114.28 0.100235 117.047 1.96915C117.957 2.58403 118.97 3.79807 119.655 5.09586C119.836 5.43816 119.981 5.61337 120.11 5.6455C120.435 5.72677 120.541 5.63132 120.541 5.2572C120.541 4.76086 120.153 0.795414 120.096 0.703647C119.987 0.527808 119.735 0.642018 119.516 0.966928C119.39 1.15431 119.214 1.31805 119.126 1.33079C119.038 1.34362 118.477 1.15239 117.88 0.905939C116.63 0.390362 115.868 0.175007 114.9 0.0645668C114.127 -0.0235132 113.896 -0.0223863 113.066 0.073548ZM0.0345711 0.442695C-0.0917158 0.718235 0.127493 0.960032 0.700338 1.17707C1.30469 1.40612 1.72635 1.75644 1.91904 2.18963C2.22521 2.878 2.23738 3.33964 2.0737 8.03882C1.98771 10.5079 1.89898 12.7543 1.87649 13.0309C1.80065 13.9633 1.43485 14.5062 0.647873 14.8538C0.202846 15.0504 -0.059318 15.3478 0.0233689 15.5622C0.0513342 15.6345 0.0974324 15.6974 0.125962 15.7019C0.483627 15.7584 5.27947 15.7309 5.35579 15.6719C5.51891 15.5456 5.4737 15.2271 5.2752 15.1044C5.17551 15.0428 4.91254 14.9497 4.69091 14.8976C4.07575 14.7528 3.70076 14.4681 3.47277 13.973C3.16773 13.3103 3.13557 12.701 3.24897 9.72884C3.30627 8.22683 3.35551 6.69133 3.35841 6.31665C3.36324 5.68189 3.44601 5.33238 3.56368 5.44947C3.59124 5.47688 4.63047 7.74796 5.87303 10.4963C7.11567 13.2447 8.18866 15.5564 8.25757 15.6336C8.32648 15.7107 8.48032 15.7738 8.5996 15.7738C8.8936 15.7738 8.98741 15.6456 9.50859 14.5316C9.75601 14.0026 10.3165 12.8305 10.7541 11.9268C11.1917 11.0232 12.0372 9.26528 12.6327 8.0203C13.7397 5.70633 13.9388 5.34816 14.054 5.46277C14.0901 5.49867 14.2066 7.33746 14.3129 9.549C14.5231 13.9232 14.5195 14.0048 14.1005 14.5001C13.9813 14.641 13.7193 14.8274 13.5183 14.9143C12.922 15.1722 12.7801 15.3466 12.9499 15.6135C13.0155 15.7168 13.4596 15.7347 16.0911 15.7406C18.9696 15.7471 19.1643 15.7385 19.2902 15.6001C19.5277 15.3392 19.3305 15.0963 18.7167 14.8932C17.9376 14.6354 17.5944 14.2998 17.368 13.5745C17.2892 13.3219 16.9066 4.64208 16.905 3.07075C16.9036 1.74642 17.1545 1.32446 18.102 1.05742C18.3498 0.987608 18.6342 0.879171 18.734 0.816577C18.9533 0.678967 18.979 0.334495 18.7743 0.27671C18.5316 0.208105 15.3348 0.261891 15.2184 0.336506C15.1577 0.375537 14.9173 0.808323 14.6843 1.29825C14.4513 1.78826 13.9626 2.80226 13.5982 3.55162C13.2339 4.30098 12.5737 5.66771 12.1312 6.58874C10.2052 10.5975 9.65325 11.6864 9.54695 11.6864C9.48111 11.6864 9.17712 11.1219 8.80229 10.3039C8.45389 9.54355 8.00822 8.57875 7.81182 8.15999C7.6155 7.74123 7.00872 6.42484 6.46336 5.23468C4.77932 1.5592 4.35105 0.674154 4.14901 0.45151L3.95406 0.236725L2.03493 0.251146C0.140146 0.265492 0.114679 0.267898 0.0345711 0.442695ZM27.051 0.341789C26.9285 0.46361 26.9624 0.750934 27.1155 0.888544C27.193 0.95827 27.5032 1.07689 27.8047 1.15223C28.5058 1.32726 28.823 1.54021 29.0515 1.98943L29.2347 2.34944L29.2127 8.07985C29.1911 13.7304 29.1883 13.8154 29.0195 14.1785C28.7985 14.6536 28.5495 14.8789 28.1289 14.9843C27.7259 15.0852 27.5157 15.2902 27.5523 15.5468L27.5789 15.7337L30.8295 15.7338C33.2643 15.7339 34.1003 15.7097 34.1606 15.6375C34.3113 15.4569 34.1491 15.2265 33.7807 15.0978C33.5833 15.0288 33.2496 14.9119 33.039 14.838C32.5614 14.6704 32.2541 14.3716 32.1404 13.9642C32.0208 13.5359 32.0217 9.97128 32.1414 9.73758C32.2673 9.49185 33.195 8.56072 33.3139 8.56072C33.368 8.56072 33.7766 9.05666 34.2222 9.66272C34.6677 10.2689 35.772 11.7746 36.6762 13.0088C37.5804 14.243 38.4354 15.3611 38.5761 15.4933L38.832 15.7337L42.9571 15.7438C45.5968 15.7503 47.1183 15.7251 47.1828 15.6739C47.2382 15.6299 47.2835 15.6267 47.2835 15.6668C47.2835 15.7225 52.063 15.7568 52.3781 15.7035C52.4098 15.6981 52.4732 15.624 52.519 15.5389C52.6358 15.3219 52.483 15.1931 51.8005 14.9338C51.4446 14.7985 51.1596 14.6288 51.029 14.4743L50.8217 14.2295L50.8458 11.5353C50.8694 8.89124 50.8733 8.83522 51.0555 8.51929C51.3641 7.984 51.7118 7.80407 52.5022 7.77081C53.3479 7.73523 53.7771 7.88076 54.1689 8.33591C54.6971 8.9495 54.7271 9.12631 54.7597 11.8205C54.793 14.5586 54.803 14.5042 54.1713 15.019C53.8814 15.2552 53.8084 15.363 53.8275 15.5263L53.8518 15.7337L56.1083 15.7431C57.4896 15.7488 58.404 15.7217 58.4656 15.6732C58.7027 15.4866 58.5701 15.2948 58.0224 15.0325C57.1878 14.6328 57.1966 14.6655 57.1965 11.9836C57.1963 9.50516 57.1208 8.89605 56.7062 8.0284C56.4048 7.39749 55.6809 6.71465 55.0744 6.48896C53.7788 6.00688 52.2258 6.29661 51.2986 7.19328L50.8296 7.6469V7.15208C50.8296 6.51051 50.7549 6.15363 50.6091 6.09793C50.5448 6.0734 50.2145 6.20043 49.8751 6.38028C49.52 6.56838 48.8646 6.81274 48.3312 6.9558C47.8215 7.09245 47.3386 7.22421 47.2582 7.24842C47.0995 7.29626 46.96 7.58046 47.0192 7.73538C47.0591 7.83973 47.3886 7.95666 47.8685 8.03681C48.429 8.13034 48.4241 8.09884 48.3963 11.4188C48.3681 14.7835 48.3806 14.7193 47.6831 15.0791C47.349 15.2515 47.286 15.2608 47.1141 15.1633C47.0078 15.103 46.7112 14.9782 46.4549 14.886C45.6664 14.6025 45.7154 14.9011 45.689 10.2237C45.6692 6.69998 45.6498 6.14297 45.5458 6.1033C45.4797 6.07805 45.1093 6.21782 44.7226 6.41394C44.2768 6.64011 43.6834 6.85322 43.1007 6.9966C42.2557 7.2045 41.8839 7.38674 41.8839 7.59328C41.8839 7.74267 42.1382 7.91443 42.4305 7.96252C42.9225 8.04346 43.1826 8.17361 43.2607 8.37807C43.3014 8.48426 43.3346 9.89523 43.3346 11.5135C43.3346 14.736 43.3425 14.6795 42.8501 14.9328C42.5348 15.0949 42.2606 15.0834 41.8833 14.8919C41.1945 14.5425 40.5197 13.7623 38.0793 10.4939C36.7439 8.70538 35.5808 7.12315 35.4946 6.97785L35.3379 6.71361L35.5227 6.45497C35.6244 6.31279 36.0009 5.92594 36.3593 5.59534C40.4546 1.81735 40.7619 1.56737 41.8436 1.13283C42.3958 0.910982 42.4921 0.843906 42.5143 0.665101C42.5661 0.248504 42.5656 0.248422 39.7681 0.248182C38.1864 0.248021 37.1299 0.278715 37.0686 0.326723C36.9054 0.454314 36.9506 0.772338 37.1492 0.89416C37.2489 0.955311 37.5055 1.0518 37.7194 1.10846C37.9563 1.1713 38.1556 1.28326 38.2291 1.39482C38.3385 1.56089 38.3339 1.61386 38.1802 1.95961C38.0868 2.16951 37.8688 2.52335 37.6956 2.74608C37.2441 3.32681 32.3261 8.07985 32.1767 8.07985C32.066 8.07985 32.052 7.74284 32.0537 5.1345C32.0547 3.51452 32.0886 2.04769 32.1289 1.87474C32.2621 1.30378 32.5442 1.06735 33.2784 0.911388C33.5469 0.854405 33.7031 0.602111 33.592 0.404872C33.5197 0.276319 33.2686 0.265655 30.3206 0.265655C28.4114 0.265655 27.0968 0.296266 27.051 0.341789ZM44.0612 1.23582C43.6319 1.62148 43.0927 2.43656 43.0931 2.6992C43.0937 3.03461 43.8298 4.04219 44.2783 4.32134C44.475 4.4438 44.5737 4.4628 44.6906 4.40061C44.9422 4.26668 45.6199 3.48654 45.8346 3.08373L46.0344 2.70873L45.8078 2.27787C45.5093 1.71052 44.7938 0.946892 44.5608 0.946892C44.4628 0.946892 44.238 1.07689 44.0612 1.23582ZM134.194 6.40289C133.833 6.60157 133.271 6.80754 132.663 6.96431C131.566 7.24714 131.319 7.37112 131.356 7.62109C131.382 7.79918 131.626 7.91507 132.265 8.05148C132.485 8.09852 132.617 8.18259 132.687 8.32028C132.815 8.5721 132.836 14.2826 132.711 14.6108C132.656 14.7547 132.495 14.8804 132.198 15.0109C131.761 15.203 131.624 15.3669 131.701 15.607C131.738 15.7241 131.994 15.739 134.101 15.7474C135.59 15.7532 136.495 15.7267 136.559 15.6753C136.795 15.4844 136.592 15.1339 136.176 15.013C135.737 14.8856 135.438 14.6998 135.326 14.4847C135.23 14.2999 135.209 13.7562 135.209 11.4809C135.209 8.77247 135.213 8.69497 135.385 8.39106C135.836 7.59313 137.235 7.43083 137.926 8.09636C138.409 8.56185 138.456 8.86167 138.494 11.6766C138.532 14.5535 138.511 14.684 137.946 15.0717C137.625 15.2928 137.532 15.545 137.727 15.6667C137.783 15.7012 138.801 15.7305 139.991 15.7319C142.294 15.7345 142.366 15.7224 142.272 15.349C142.237 15.2109 142.096 15.112 141.726 14.9673C140.868 14.6318 140.895 14.7289 140.866 11.8343C140.84 9.19274 140.887 8.68647 141.198 8.23245C141.497 7.79445 141.748 7.66229 142.354 7.62302C142.818 7.59297 142.963 7.61685 143.267 7.77345C143.705 7.99866 143.955 8.35074 144.071 8.90631C144.125 9.16774 144.149 10.3174 144.136 12.003L144.114 14.6838L143.752 14.9588C143.458 15.1811 143.389 15.2817 143.389 15.4838V15.7337L145.589 15.7367C147.927 15.7399 147.982 15.7311 147.928 15.3575C147.909 15.2194 147.77 15.1094 147.378 14.9217C146.551 14.5252 146.573 14.61 146.573 11.8725C146.572 8.49853 146.432 7.75366 145.655 6.99492C145.357 6.70447 145.117 6.5526 144.799 6.45378C143.39 6.01658 142.077 6.30943 140.957 7.31021L140.543 7.68088L140.068 7.20915C139.512 6.65622 139.137 6.44809 138.456 6.31481C137.539 6.13536 136.403 6.48687 135.584 7.20385L135.209 7.53246V6.95934C135.209 6.3342 135.118 6.07268 134.904 6.08262C134.828 6.08614 134.509 6.23033 134.194 6.40289ZM150.419 6.46932C150.03 6.67899 149.395 6.94891 149.008 7.06921C147.851 7.42891 147.767 7.47828 147.796 7.78043C147.82 8.02215 147.849 8.04523 148.224 8.12032C148.701 8.21561 148.854 8.2996 148.978 8.53539C149.092 8.75066 149.109 18.9559 148.996 19.1334C148.956 19.1958 148.766 19.322 148.574 19.4139C148.219 19.5835 148.074 19.8642 148.252 20.0407C148.303 20.0913 149.228 20.122 150.73 20.123C152.935 20.1243 153.134 20.1131 153.231 19.9818C153.408 19.7402 153.228 19.5613 152.626 19.3831C151.948 19.1824 151.68 18.982 151.572 18.5953C151.499 18.3315 151.447 15.6135 151.516 15.6135C151.531 15.6135 151.827 15.6857 152.173 15.7738C154.274 16.3082 156.334 15.3703 157.277 13.4496C158.425 11.1119 158.135 8.23957 156.626 7.00974C156.149 6.62151 155.658 6.41627 154.938 6.30494C153.879 6.14129 152.831 6.49328 151.9 7.32575L151.494 7.68866L151.471 6.90243C151.443 5.93587 151.423 5.9277 150.419 6.46932ZM170.228 6.39744C169.919 6.56911 169.375 6.78558 169.019 6.87854C167.684 7.22726 167.53 7.2824 167.445 7.44037C167.301 7.70757 167.473 7.902 167.909 7.96516C168.479 8.04755 168.719 8.19621 168.777 8.50077C168.804 8.64399 168.814 10.0053 168.801 11.5261C168.773 14.5902 168.758 14.677 168.235 14.9593C167.78 15.2049 167.582 15.4102 167.637 15.5815C167.686 15.7357 167.763 15.7403 170.206 15.7358C171.591 15.7331 172.77 15.7024 172.825 15.6675C172.985 15.5667 172.942 15.3072 172.744 15.1799C172.645 15.1156 172.361 14.9885 172.115 14.8973C171.868 14.8061 171.56 14.6209 171.43 14.4859L171.193 14.2402V11.6209C171.193 9.10531 171.2 8.98669 171.367 8.62668C171.629 8.06366 172.063 7.80936 172.829 7.77089C174.137 7.70525 174.819 8.22875 175.092 9.50635C175.213 10.0729 175.215 14.197 175.094 14.4367C175.046 14.5329 174.801 14.7984 174.55 15.0265C174.161 15.3807 174.107 15.4626 174.184 15.5875C174.267 15.7232 174.437 15.7343 176.545 15.7417C178.644 15.7491 178.822 15.7388 178.893 15.6073C179.017 15.3761 178.909 15.2473 178.41 15.0332C177.628 14.6978 177.647 14.7726 177.596 11.8906C177.559 9.85563 177.525 9.30736 177.407 8.8813C176.886 6.98666 175.45 6.02115 173.583 6.30936C172.78 6.4331 172.196 6.714 171.637 7.24433L171.159 7.6978L171.136 6.90699C171.108 5.95038 171.071 5.92963 170.228 6.39744ZM23.7105 6.2938C20.6048 6.7209 18.5434 9.75521 19.3165 12.7616C19.5275 13.5819 19.82 14.1019 20.4063 14.6985C21.7547 16.0709 23.7598 16.3044 25.7656 15.3224C26.7474 14.8417 27.5386 14.095 27.5386 13.6492C27.5386 13.2527 27.3618 13.2795 26.4751 13.8112C25.2969 14.5175 24.5811 14.648 23.6934 14.3182C23.0809 14.0906 22.346 13.3692 21.992 12.6481C21.5495 11.7467 21.3889 10.9288 21.4347 9.80915C21.4789 8.7267 21.6039 8.27573 21.9879 7.81257C22.3554 7.36904 22.7796 7.18414 23.4294 7.18414C24.3336 7.18414 24.8282 7.58447 25.1251 8.55647C25.3516 9.29806 25.4329 9.35793 25.9042 9.13015C26.346 8.91673 26.9094 8.47112 27.0965 8.18716C27.2849 7.90112 27.1916 7.50072 26.8483 7.12291C26.2873 6.50531 24.8788 6.13311 23.7105 6.2938ZM61.6551 6.35528C60.5131 6.56133 59.7186 7.08797 59.3143 7.90665C59.1141 8.31211 59.0904 8.44563 59.092 9.16181C59.0949 10.4918 59.4064 10.8872 61.0647 11.6658C62.9855 12.5676 63.1926 12.6818 63.5826 13.0542C63.934 13.3896 63.966 13.4517 63.966 13.7987C63.966 14.7625 63.2225 15.3725 62.1799 15.2642C61.0778 15.1496 60.5014 14.5539 59.7065 12.7083C59.5877 12.4324 59.4974 12.3276 59.3786 12.3276C59.0569 12.3276 58.9837 12.6069 58.9555 13.9421C58.9319 15.0592 58.9448 15.2134 59.0739 15.3552C59.2451 15.5433 59.8926 15.7322 60.7683 15.8496C63.0661 16.1576 64.7731 15.5244 65.4746 14.1039C65.677 13.694 65.6986 13.5682 65.6972 12.8084C65.6959 12.052 65.673 11.9205 65.4707 11.5082C65.0915 10.7347 64.3866 10.2601 62.6593 9.61487C61.1185 9.03935 60.8213 8.81446 60.7666 8.18267C60.7007 7.42209 61.1997 6.99828 62.1527 7.00542C63.1484 7.01287 63.7213 7.37649 64.4003 8.43192C64.6894 8.88138 64.9063 8.99423 65.0716 8.78112C65.1217 8.7166 65.118 8.3384 65.0614 7.71919L64.9734 6.75745L64.6854 6.61735C64.3837 6.4706 62.9996 6.23257 62.5154 6.24419C62.3602 6.24796 61.9731 6.2979 61.6551 6.35528ZM70.091 6.29188C68.4327 6.5679 67.2568 7.74492 66.6602 9.7258C66.3615 10.7174 66.3363 12.1666 66.603 13.0122C66.9457 14.098 67.7254 15.0205 68.6737 15.4618C70.2015 16.1728 71.9933 16.035 73.5246 15.0889C74.3877 14.5555 75.0045 13.8255 74.8753 13.4904C74.798 13.29 74.5211 13.3522 74.0053 13.6858C73.0609 14.2965 72.6277 14.4514 71.864 14.4514C71.2635 14.4514 71.1143 14.4206 70.6551 14.2022C69.4566 13.632 68.7209 12.4131 68.7209 10.9977V10.406L71.7632 10.385L74.8056 10.364L74.8007 9.78904C74.7965 9.28885 74.7553 9.13248 74.4847 8.58685C73.6779 6.95998 71.841 6.00055 70.091 6.29188ZM125.451 6.31649C123.924 6.55797 122.548 7.55689 121.883 8.90815C121.469 9.74783 121.325 10.3838 121.326 11.3658C121.327 12.7853 121.756 13.7936 122.742 14.7022C124.627 16.4372 128.068 16.3054 129.86 14.4295C131.136 13.0944 131.581 10.8906 130.927 9.15164C130.429 7.82867 129.257 6.82661 127.754 6.43839C127.148 6.28187 126.041 6.22328 125.451 6.31649ZM161.869 6.3176C161.255 6.41426 160.263 6.75119 159.876 6.99412C159.001 7.54311 158.491 8.59037 158.856 9.08639C159.121 9.44665 160.532 9.18081 160.822 8.71589C160.881 8.62244 160.95 8.28934 160.976 7.97565C161.043 7.18486 161.195 7.03731 161.942 7.03972C163.217 7.0438 163.683 7.6388 163.792 9.40281L163.841 10.2066L163.004 10.3937C160.535 10.9458 159.42 11.551 158.886 12.6298C158.653 13.1012 158.621 13.2431 158.621 13.8086C158.622 14.3788 158.65 14.5012 158.871 14.8922C159.308 15.6633 160.042 16.0008 161.073 15.9055C161.95 15.8245 162.887 15.4702 163.738 14.8977L164.1 14.6542L164.27 15.0363C164.674 15.9483 165.511 16.1663 166.629 15.651C167.304 15.34 167.701 14.994 167.672 14.7418C167.648 14.538 167.632 14.5323 167.163 14.5546C166.567 14.5832 166.352 14.5341 166.276 14.352C166.244 14.2744 166.192 12.8946 166.162 11.2857C166.102 8.12385 166.086 8.01036 165.63 7.35477C165.36 6.96751 164.806 6.59307 164.269 6.43438C163.763 6.28491 162.474 6.22223 161.869 6.3176ZM91.2212 6.69734C91.3304 6.86268 91.5584 7.21428 91.7279 7.47876C92.5471 8.75628 93.9428 10.1447 96.3515 12.0781C98.1891 13.5531 98.3669 13.7239 98.2523 13.9045C98.0667 14.197 96.6053 14.5727 95.662 14.5703C93.5393 14.5648 91.2549 13.0991 89.9698 10.918C88.9423 9.17407 89.0727 7.30973 90.2723 6.59459C90.7514 6.30895 90.9812 6.3338 91.2212 6.69734ZM75.1747 6.57039C74.9156 6.66568 74.9095 6.87438 75.159 7.10432C75.2868 7.22213 75.5316 7.44629 75.7029 7.60242C75.9533 7.83067 76.4141 8.67485 78.0494 11.9008C79.1686 14.1087 80.0843 15.9927 80.0843 16.0875C80.0843 16.3735 79.8997 16.7296 78.9956 18.1868C78.0189 19.7612 77.9452 19.9126 78.0777 20.0714C78.1787 20.1925 79.2408 20.2286 79.4175 20.1169C79.5263 20.0482 80.2659 18.2511 82.7777 11.952C84.3104 8.10838 84.4707 7.747 84.7561 7.49053C84.927 7.33706 85.14 7.17244 85.2296 7.12483C85.4273 7.0196 85.5316 6.73276 85.4146 6.61639C85.3606 6.56269 84.7023 6.52807 83.6206 6.52198C82.1684 6.5138 81.888 6.53151 81.7534 6.63987C81.4869 6.8545 81.6377 7.06937 82.2309 7.32007C82.8588 7.58543 83.0655 7.85416 83.0659 8.40588C83.0663 8.88571 82.93 9.32779 82.2031 11.2055C81.5298 12.9447 81.4827 13.0489 81.3689 13.0489C81.2309 13.0489 78.8753 8.24847 78.8766 7.97013C78.8783 7.6231 78.9291 7.56732 79.4799 7.30676C79.9094 7.10359 79.9662 7.04893 79.9886 6.81755C80.0053 6.64588 79.9778 6.55436 79.9081 6.54915C79.3944 6.51084 75.2865 6.52927 75.1747 6.57039ZM178.087 6.57151C177.714 6.70872 177.791 6.99059 178.292 7.31846C178.494 7.4507 178.725 7.64907 178.804 7.75927C179.108 8.17883 183 15.9239 182.998 16.1047C182.995 16.399 182.771 16.8282 181.88 18.2452C180.949 19.725 180.859 19.9106 180.993 20.0714C181.097 20.1956 182.158 20.2273 182.342 20.1116C182.444 20.0473 183.083 18.4807 186.025 11.0853C186.726 9.3221 187.356 7.80375 187.425 7.7111C187.493 7.61853 187.722 7.42017 187.933 7.2703C188.336 6.98402 188.473 6.75841 188.33 6.61639C188.276 6.56269 187.618 6.52807 186.536 6.52198C185.031 6.51348 184.807 6.52879 184.659 6.64989C184.415 6.84905 184.554 7.02593 185.197 7.33441C186.328 7.87748 186.305 8.28799 184.957 11.6463C184.589 12.5623 184.37 13.0088 184.289 13.0088C184.16 13.0088 184.124 12.941 182.697 10.0425C182.127 8.88547 181.79 8.10685 181.79 7.94937C181.791 7.65852 181.897 7.55281 182.465 7.27839C182.823 7.1052 182.882 7.04268 182.904 6.81755C182.921 6.64588 182.893 6.55436 182.823 6.54915C182.302 6.51028 178.201 6.5296 178.087 6.57151ZM71.1614 7.06585C71.8357 7.34692 72.3333 8.07705 72.4079 8.89493C72.4744 9.62362 72.5313 9.60261 70.4856 9.60261H68.724L68.6776 9.41908C68.5564 8.93868 68.955 7.68721 69.3392 7.34202C69.7431 6.97904 70.6304 6.84465 71.1614 7.06585ZM126.801 7.19312C127.811 7.64931 128.593 9.22152 128.851 11.318C129.155 13.7788 128.423 15.0923 126.747 15.0925C125.442 15.0927 124.435 14.0348 123.915 12.1174C123.703 11.3362 123.662 9.60285 123.837 8.81831C124.102 7.62927 124.787 7.03635 125.89 7.03972C126.279 7.04092 126.573 7.09053 126.801 7.19312ZM153.836 7.96187C155.179 8.4171 156.113 10.5249 155.908 12.6376C155.803 13.7177 155.343 14.569 154.697 14.8801C154.127 15.1542 153.27 15.1238 152.632 14.8069C152.346 14.665 152.001 14.4068 151.813 14.1946L151.488 13.8277V11.1983V8.5689L151.753 8.36845C152.421 7.86113 153.13 7.7228 153.836 7.96187ZM163.801 12.4807C163.822 13.9087 163.817 13.9624 163.644 14.1452C163.305 14.5048 162.176 14.6954 161.726 14.4691C161.345 14.2773 161.159 13.8847 161.159 13.2695C161.159 12.6163 161.299 12.2684 161.738 11.832C162.204 11.3692 163.137 10.9518 163.617 10.9918C163.771 11.0046 163.78 11.071 163.801 12.4807Z" fill="#706D6D"/>
</svg>
