<svg width="88" height="62" viewBox="0 0 88 62" fill="none" xmlns="http://www.w3.org/2000/svg">
<path d="M56.6515 30.92C56.9719 30.4342 57.1348 29.7468 57.1348 28.8744C57.1348 28.0031 56.9719 27.3169 56.6527 26.8363C56.3347 26.3606 55.8554 26.1289 55.1871 26.1289C54.5172 26.1289 54.0403 26.3606 53.7287 26.8363C53.4131 27.3169 53.2529 28.0031 53.2529 28.8744C53.2529 29.7468 53.4131 30.4354 53.7287 30.92C54.0403 31.4017 54.5172 31.6346 55.1871 31.6346C55.8554 31.6346 56.3347 31.4005 56.6515 30.92Z" fill="#AEAEAE"/>
<path d="M74.0407 26.8372C73.8342 27.1512 73.7004 27.5546 73.6289 28.0388H77.2619C77.2256 27.5722 77.1341 27.1512 76.924 26.8372C76.6072 26.3615 76.1654 26.0986 75.4968 26.0986C74.8281 26.0986 74.3527 26.3603 74.0407 26.8372Z" fill="#AEAEAE"/>
<path d="M33.2468 26.8372C33.0403 27.1512 32.9075 27.5546 32.835 28.0388H36.4677C36.4313 27.5722 36.3399 27.1512 36.1309 26.8372C35.8131 26.3615 35.3711 26.0986 34.7027 26.0986C34.0342 26.0986 33.5585 26.3603 33.2468 26.8372Z" fill="#AEAEAE"/>
<path d="M21.5304 31.0709C21.5979 31.1736 21.6254 31.2135 21.8245 31.3725C21.8245 31.3725 22.2814 31.7332 23.318 31.6705C24.0465 31.6266 24.6925 31.4875 24.6925 31.4875V29.1719C24.6925 29.1719 24.0403 29.0641 23.3105 29.0541C22.2715 29.0405 21.8333 29.422 21.8333 29.422C21.5266 29.6389 21.3789 29.9604 21.3789 30.4086C21.3789 30.6914 21.4302 30.9143 21.5304 31.0709Z" fill="#AEAEAE"/>
<path fill-rule="evenodd" clip-rule="evenodd" d="M47.7145 1.92405C43.3504 1.92405 39.4046 3.75563 36.5705 6.70872C33.452 2.63141 28.5335 0 22.9991 0C13.5726 0 5.93003 7.63122 5.93003 17.0451C5.93003 19.455 6.43206 21.7472 7.33459 23.8241C2.95061 26.3866 0 31.176 0 36.6618C0 44.8478 6.56724 51.4823 14.668 51.4819C15.702 51.4819 16.7098 51.3745 17.6825 51.168C19.9082 57.2061 25.7068 61.5106 32.5106 61.5106C39.0439 61.5106 44.6499 57.5429 47.0558 51.883C48.8861 52.7758 50.9417 53.2771 53.1151 53.2771C58.3064 53.2771 62.8295 50.4166 65.2026 46.1832C66.4313 46.4312 67.6812 46.5559 68.9347 46.5551C79.3976 46.5551 87.8801 37.9987 87.8801 27.4431C87.8801 16.8887 79.3976 8.33223 68.9347 8.33223C66.2068 8.33223 63.6144 8.91443 61.272 9.96088C58.5769 5.1588 53.5154 1.92405 47.7145 1.92405ZM51.872 21.5292C52.0649 21.5654 52.2127 21.5993 52.3753 21.6494C52.4105 21.663 52.5095 21.7118 52.4692 21.8273L52.0801 22.8965C52.0474 22.9764 52.025 23.0252 51.8584 22.9752C51.8169 22.9625 51.7558 22.9453 51.598 22.9113C51.4841 22.8874 51.3327 22.8702 51.1797 22.8702C50.9784 22.8702 50.7943 22.8949 50.6329 22.9477C50.4751 22.9988 50.3309 23.0879 50.2059 23.2129C50.0792 23.3407 49.9291 23.5273 49.8492 23.7566C49.6902 24.2163 49.6131 24.7009 49.5883 24.8563L49.5799 24.9054H51.2085C51.3451 24.9054 51.3875 24.9681 51.3751 25.0696L51.1849 26.1285C51.1558 26.2823 51.0144 26.2775 51.0144 26.2775H49.3371L48.189 32.7711C48.0688 33.4418 47.9174 34.0178 47.7408 34.4811C47.5631 34.9505 47.3765 35.2932 47.0797 35.6216C46.8045 35.9244 46.4941 36.1485 46.1386 36.2775C45.7843 36.4049 45.3561 36.4712 44.8879 36.4712C44.6638 36.4712 44.425 36.4676 44.1418 36.4013C43.9376 36.3526 43.8262 36.3174 43.676 36.2647C43.6125 36.2411 43.5621 36.162 43.5973 36.061C43.6336 35.9595 43.934 35.1342 43.9756 35.0256C44.0279 34.8942 44.1593 34.9441 44.1593 34.9441C44.2508 34.9828 44.3147 35.0092 44.435 35.0332C44.5564 35.0579 44.7202 35.0783 44.8428 35.0783C45.0645 35.0783 45.2674 35.0508 45.4424 34.9916C45.6553 34.9205 45.7783 34.7979 45.9081 34.6325C46.0436 34.4596 46.1522 34.2231 46.2637 33.9075C46.3779 33.5872 46.4806 33.1653 46.5692 32.652L47.7109 26.2775H46.5856C46.4506 26.2775 46.4067 26.2136 46.4202 26.1134L46.6092 25.0532C46.6395 24.9006 46.7798 24.9054 46.7798 24.9054H47.9362L47.9989 24.5611C48.1715 23.5385 48.5158 22.761 49.0231 22.2502C49.5324 21.7369 50.2586 21.4765 51.1801 21.4765C51.4442 21.4765 51.6767 21.4942 51.872 21.5292ZM29.4734 32.8198C29.5586 32.8198 29.6199 32.7511 29.6199 32.666V21.7945C29.6199 21.7095 29.5586 21.6406 29.4734 21.6406H28.1227C28.0375 21.6406 27.9775 21.7095 27.9775 21.7945V32.666C27.9775 32.7511 28.0375 32.8198 28.1227 32.8198H29.4734ZM12.7534 32.0836C12.7271 32.0584 12.6835 32.0173 12.7291 31.8983L13.0849 30.9116C13.1412 30.7414 13.2702 30.7978 13.3215 30.8305C13.363 30.8553 13.4002 30.8797 13.4391 30.9048C13.4915 30.9388 13.5467 30.9743 13.6194 31.0167C14.6672 31.679 15.6374 31.6854 15.9416 31.6854C16.7253 31.6854 17.2109 31.2699 17.2109 30.7115V30.6815C17.2109 30.0712 16.4652 29.8419 15.5988 29.5754L15.4045 29.5159C14.214 29.1756 12.9434 28.687 12.9434 27.1811V27.1511C12.9434 25.7227 14.095 24.7264 15.745 24.7264L15.9252 24.7253C16.8941 24.7253 17.8305 25.0069 18.5077 25.4187C18.5691 25.4563 18.6291 25.5262 18.5954 25.6216C18.5641 25.7091 18.2636 26.5176 18.2286 26.6079C18.1647 26.7769 17.9907 26.6642 17.9907 26.6642C17.3973 26.3363 16.476 26.0782 15.6998 26.0782C15.0013 26.0782 14.5506 26.4489 14.5506 26.9522V26.9834C14.5506 27.5718 15.3209 27.8218 16.2141 28.1122L16.3695 28.1626C17.5551 28.5368 18.8181 29.0553 18.8181 30.4826V30.5126C18.8181 32.056 17.699 33.0147 15.8963 33.0147C15.0113 33.0147 14.1649 32.8761 13.2687 32.4004L13.1636 32.3413C13.0302 32.2666 12.8976 32.1927 12.7666 32.0972L12.7534 32.0836ZM39.1434 32.0836C39.1174 32.0584 39.0735 32.0173 39.1194 31.8983L39.4749 30.9116C39.5273 30.7502 39.6802 30.8089 39.7126 30.8305L39.7729 30.8693C39.8432 30.9152 39.9103 30.9591 40.0094 31.0167C41.0572 31.679 42.0274 31.6854 42.3314 31.6854C43.1152 31.6854 43.6021 31.2699 43.6021 30.7115V30.6815C43.6021 30.0716 42.8559 29.8423 41.9903 29.5762L41.7946 29.5159C40.6038 29.1756 39.3331 28.687 39.3331 27.1811V27.1511C39.3331 25.7227 40.4847 24.7264 42.1349 24.7264L42.315 24.7253C43.2841 24.7253 44.2204 25.0069 44.8975 25.4187C44.959 25.4563 45.0194 25.5262 44.9854 25.6216C44.9538 25.7091 44.6535 26.5176 44.6183 26.6079C44.5548 26.7769 44.3806 26.6642 44.3806 26.6642C43.7874 26.3363 42.8659 26.0782 42.0898 26.0782C41.3911 26.0782 40.9405 26.4489 40.9405 26.9522V26.9834C40.9405 27.5714 41.7107 27.8218 42.6031 28.1118L42.7596 28.1626C43.9452 28.5368 45.2083 29.0553 45.2083 30.4826V30.5126C45.2083 32.056 44.089 33.0147 42.2863 33.0147C41.4015 33.0147 40.555 32.8761 39.6587 32.4004L39.5532 32.3409C39.4202 32.2666 39.2876 32.1927 39.157 32.0972L39.1498 32.0892L39.1434 32.0836ZM57.9553 25.9504C58.2617 26.3171 58.4922 26.7577 58.64 27.2574C58.7874 27.7543 58.8617 28.2988 58.8617 28.8748C58.8617 29.4508 58.7878 29.9953 58.64 30.4922C58.4922 30.9915 58.2617 31.4325 57.9553 31.7992C57.6485 32.1671 57.2591 32.4615 56.7997 32.6704C56.3391 32.8793 55.797 32.986 55.1875 32.986C54.5763 32.986 54.0343 32.8793 53.5737 32.6704C53.1143 32.4615 52.7248 32.1671 52.4181 31.7992C52.1101 31.4313 51.8812 30.9903 51.7322 30.4922C51.5856 29.9965 51.5117 29.452 51.5117 28.8748C51.5117 28.2976 51.5856 27.7543 51.7322 27.2574C51.8812 26.7593 52.1117 26.3187 52.4169 25.9504C52.7248 25.5825 53.1131 25.2869 53.5737 25.0716C54.0331 24.8575 54.5763 24.7488 55.1875 24.7488C55.797 24.7488 56.3403 24.8575 56.7997 25.0716C57.2603 25.2869 57.6485 25.5825 57.9553 25.9504ZM70.805 31.3107C70.805 31.3107 70.9464 31.2555 70.9963 31.4021L71.3658 32.4223C71.4133 32.549 71.3043 32.6013 71.3043 32.6013C70.7363 32.8254 69.9449 32.982 69.174 32.982C67.8694 32.982 66.8691 32.6053 66.2032 31.8639C65.5386 31.1253 65.2018 30.1163 65.2018 28.8684C65.2018 28.2912 65.2841 27.7455 65.4471 27.2486C65.6109 26.7501 65.8561 26.3095 66.1793 25.9416C66.502 25.5733 66.9103 25.2781 67.3912 25.064C67.873 24.8487 68.4362 24.7408 69.0685 24.7408C69.4916 24.7408 69.8722 24.7672 70.1978 24.8175C70.5457 24.8699 71.0063 24.9937 71.2016 25.07C71.2368 25.084 71.3342 25.1327 71.2943 25.2465C71.2004 25.5158 71.1253 25.7219 71.0466 25.9388L70.9248 26.2759C70.8685 26.4309 70.7498 26.3798 70.7498 26.3798C70.2541 26.2232 69.7808 26.1517 69.16 26.1517C68.415 26.1517 67.857 26.401 67.4899 26.8867C67.1208 27.3748 66.9155 28.016 66.9127 28.8684C66.9103 29.8047 67.1432 30.497 67.559 30.9252C67.9732 31.3534 68.5516 31.5699 69.2802 31.5699C69.5766 31.5699 69.8535 31.5499 70.1051 31.5112C70.3528 31.4724 70.5857 31.3945 70.805 31.3107ZM78.0431 25.7818C78.2512 26.0047 78.568 26.4916 78.6954 26.9734C79.001 28.0467 78.8719 28.983 78.8496 29.1456L78.8468 29.168C78.8328 29.2982 78.699 29.3006 78.699 29.3006L73.6055 29.2958C73.6379 30.0692 73.822 30.6176 74.1987 30.9907C74.5654 31.355 75.1514 31.5879 75.9412 31.5891C77.0441 31.5915 77.5717 31.3894 77.9324 31.2511L78.0319 31.2136C78.0319 31.2136 78.1737 31.1621 78.2236 31.3011L78.5564 32.2338C78.6243 32.3916 78.5704 32.4467 78.514 32.4779C78.1949 32.6544 77.4199 32.9824 75.9487 32.9872C75.2341 32.9888 74.6118 32.8861 74.1001 32.688C73.584 32.4895 73.1534 32.2038 72.8194 31.8395C72.4839 31.4776 72.2358 31.041 72.0808 30.5449C71.9266 30.0532 71.8491 29.5059 71.8491 28.9187C71.8491 28.3419 71.9242 27.7947 72.0732 27.2929C72.221 26.7884 72.4535 26.3438 72.7631 25.9708C73.0723 25.5965 73.4665 25.2961 73.9359 25.0756C74.404 24.8555 74.9813 24.7488 75.6172 24.7488C76.1628 24.7488 76.6614 24.8667 77.0768 25.0444C77.3948 25.1822 77.7151 25.4287 78.0431 25.7818ZM37.2496 25.7818C37.4573 26.0047 37.7728 26.4916 37.9003 26.9734C38.2059 28.0427 38.0792 28.9763 38.0565 29.1436L38.0533 29.168C38.0397 29.2982 37.9055 29.3006 37.9055 29.3006L32.8118 29.2958C32.8445 30.0692 33.0284 30.6176 33.4052 30.9907C33.7721 31.355 34.3579 31.5879 35.1466 31.5891C36.2509 31.5915 36.7782 31.3894 37.1389 31.2511L37.2384 31.2136C37.2384 31.2136 37.3798 31.1621 37.4313 31.3011L37.7629 32.2338C37.8304 32.3916 37.7768 32.4467 37.7205 32.4779C37.401 32.6544 36.6264 32.9824 35.1553 32.9872C34.4405 32.9888 33.8184 32.8861 33.3063 32.688C32.7905 32.4895 32.36 32.2038 32.0257 31.8395C31.6902 31.4776 31.4424 31.041 31.2871 30.5449C31.1331 30.0532 31.0555 29.5059 31.0555 28.9187C31.0555 28.3419 31.1318 27.7947 31.2795 27.2929C31.4272 26.7884 31.6601 26.3438 31.9693 25.9708C32.2785 25.5965 32.6728 25.2961 33.1422 25.0756C33.6104 24.8555 34.1888 24.7488 34.8235 24.7488C35.3693 24.7488 35.8675 24.8667 36.2833 25.0444C36.6012 25.1822 36.9216 25.4287 37.2496 25.7818ZM23.0571 27.7715C23.3776 27.7715 23.6455 27.7803 23.852 27.7951C23.852 27.7951 24.2539 27.8314 24.6921 27.8941V27.6784C24.6921 27.0001 24.5506 26.6786 24.2727 26.4657C23.9873 26.2464 23.5642 26.1365 23.0133 26.1365C23.0133 26.1365 21.7741 26.1201 20.7939 26.6534C20.7487 26.6798 20.7099 26.695 20.7099 26.695C20.7099 26.695 20.5885 26.7373 20.5434 26.6123L20.1829 25.6432C20.1278 25.503 20.2279 25.4403 20.2279 25.4403C20.6861 25.0824 21.799 24.8671 21.799 24.8671C22.167 24.7932 22.7817 24.7404 23.1635 24.7404C24.1812 24.7404 24.9686 24.9773 25.5032 25.4455C26.0403 25.9148 26.3131 26.6722 26.3131 27.6936L26.3157 32.352C26.3157 32.352 26.3257 32.4871 26.1992 32.5182C26.0807 32.5506 25.9618 32.5809 25.8424 32.6097C25.6722 32.6484 25.0588 32.7723 24.5593 32.8578C24.0548 32.944 23.534 32.9864 23.012 32.9864C22.5163 32.9864 22.0631 32.9404 21.6638 32.849C21.2582 32.7575 20.9089 32.6061 20.626 32.3996C20.3406 32.1931 20.1166 31.925 19.9613 31.6035C19.806 31.2827 19.7285 30.8908 19.7285 30.4403C19.7285 29.9973 19.8199 29.6014 20.0001 29.2659C20.1785 28.9331 20.4312 28.6455 20.7387 28.4258C21.0467 28.2057 21.4047 28.0391 21.8028 27.9329C22.1983 27.8262 22.6202 27.7715 23.0571 27.7715ZM64.8591 24.9877C64.893 25.0001 64.9741 25.0552 64.9354 25.1706C64.8878 25.3093 64.6402 26.0067 64.5523 26.2396C64.5199 26.3283 64.4648 26.3886 64.3673 26.3774C64.3673 26.3774 64.0742 26.3087 63.8077 26.3087C63.6224 26.3087 63.3607 26.3323 63.1242 26.405C62.8926 26.4761 62.6809 26.6027 62.4943 26.7828C62.309 26.9646 62.1588 27.2175 62.0489 27.533C61.9363 27.8522 61.8795 28.3603 61.8795 28.8696V32.6652C61.8799 32.7064 61.8636 32.7459 61.8348 32.7747C61.806 32.8038 61.7669 32.8206 61.7257 32.8206H60.3876C60.3025 32.8206 60.2322 32.7507 60.2322 32.6652V25.068C60.2322 24.9813 60.2937 24.9126 60.3788 24.9126H61.6842C61.7697 24.9126 61.8308 24.9813 61.8308 25.068V25.6875C62.0261 25.4259 62.3769 25.1954 62.692 25.0528C63.0104 24.9102 63.3659 24.8023 64.0054 24.8411C64.3398 24.8627 64.7728 24.9541 64.8591 24.9877Z" fill="#AEAEAE"/>
</svg>
