<svg version="1.1" id="Layer_1" xmlns="http://www.w3.org/2000/svg" xmlns:xlink="http://www.w3.org/1999/xlink" x="0px" y="0px"
	 width="100%" viewBox="0 0 1534 1508" enable-background="new 0 0 1534 1508" xml:space="preserve">
<path fill="#FFFFFF" opacity="1.000000" stroke="none" 
	d="
M900.000000,1509.000000 
	C600.000061,1509.000000 300.500122,1509.000000 1.000121,1509.000000 
	C1.000080,1006.333496 1.000080,503.666962 1.000040,1.000323 
	C512.333069,1.000215 1023.666199,1.000215 1534.999512,1.000108 
	C1534.999634,503.666351 1534.999634,1006.332703 1534.999756,1508.999512 
	C1323.500000,1509.000000 1112.000000,1509.000000 900.000000,1509.000000 
M701.961853,72.626328 
	C698.360352,102.221283 710.706726,124.185600 734.603821,140.528961 
	C737.666260,142.623398 738.898071,144.997467 738.882874,148.786545 
	C738.727539,187.616562 738.757874,226.447357 738.736694,265.277924 
	C738.735046,268.239136 738.736511,271.200378 738.736511,274.574646 
	C679.679077,274.574646 621.157837,274.574646 561.853882,274.574646 
	C561.853882,241.638855 561.853882,208.939148 561.853882,176.308197 
	C540.320618,176.308197 519.571838,176.308197 498.492432,176.308197 
	C498.492432,209.266907 498.492432,241.828171 498.492432,274.483948 
	C490.252563,275.313873 482.323914,275.965057 474.433960,276.932129 
	C435.589569,281.693359 401.115936,297.000977 371.077393,321.712219 
	C350.061005,339.001343 333.767456,360.437134 320.990540,384.556091 
	C307.225800,410.539795 301.466339,438.545593 299.214935,467.502441 
	C298.642761,474.861877 298.738800,474.902649 291.440491,474.890015 
	C262.776215,474.840332 234.111923,474.762054 205.447601,474.716736 
	C203.519119,474.713684 201.590347,474.895294 199.725800,474.987854 
	C199.725800,496.286224 199.725800,517.052246 199.725800,538.488403 
	C202.938782,538.488403 205.721329,538.516418 208.503174,538.484009 
	C236.663086,538.156128 264.822693,537.801025 292.982971,537.507935 
	C296.076935,537.475708 299.053345,537.012817 299.030640,542.174805 
	C298.794434,595.836670 298.810059,649.499634 298.756592,703.162292 
	C298.753143,706.616089 298.756165,710.069824 298.756165,713.866394 
	C296.020386,714.027588 294.061310,714.244995 292.102417,714.243408 
	C251.772110,714.210693 211.441757,714.114136 171.111588,714.166382 
	C167.467590,714.171143 165.484543,712.767822 163.552795,709.768005 
	C153.473862,694.116211 139.179779,683.378906 121.207634,679.518127 
	C92.294807,673.307129 68.159477,682.527344 50.522621,706.499756 
	C27.168642,738.243042 37.777992,784.440125 72.320427,804.156677 
	C87.802269,812.993652 104.168587,815.731934 121.351250,811.629822 
	C140.408539,807.080078 154.722290,795.732910 164.979736,779.057068 
	C165.939133,777.497314 168.486679,776.016174 170.300308,776.011963 
	C211.129440,775.917603 251.959244,776.112366 292.788330,776.009888 
	C297.597473,775.997864 298.962433,777.390503 298.945465,782.169495 
	C298.750824,836.998169 298.686035,891.827759 298.832977,946.656494 
	C298.847076,951.925659 297.056000,952.997498 292.229370,952.964417 
	C263.233063,952.765320 234.234756,952.853455 205.237137,952.845520 
	C203.337631,952.844971 201.438141,952.845459 199.722168,952.845459 
	C199.722168,974.463501 199.722168,995.227600 199.722168,1016.389038 
	C232.951584,1016.389038 265.800110,1016.389038 297.996216,1016.389038 
	C299.750488,1030.596313 301.097961,1044.342041 303.217590,1057.967651 
	C305.943665,1075.491333 311.510834,1092.185791 319.816376,1107.897827 
	C329.848145,1126.875732 342.859619,1143.557129 357.815308,1158.974365 
	C373.236084,1174.870972 390.908813,1187.429565 410.906433,1196.442139 
	C436.587524,1208.015869 463.519989,1215.005127 491.952118,1215.298706 
	C498.748260,1215.368896 498.785767,1215.735596 498.785431,1222.511719 
	C498.783997,1251.509521 498.751831,1280.507202 498.748474,1309.505005 
	C498.748260,1311.253662 498.901184,1313.002441 498.983856,1314.772827 
	C520.329895,1314.772827 541.088501,1314.772827 562.256714,1314.772827 
	C562.256714,1281.690796 562.256714,1248.959229 562.256714,1216.026001 
	C563.957581,1215.931763 565.259277,1215.795532 566.560913,1215.796875 
	C621.223206,1215.854492 675.885437,1215.921387 730.547729,1215.996460 
	C737.332764,1216.005981 737.337708,1216.029541 737.343811,1222.868530 
	C737.378174,1261.031006 737.213379,1299.195679 737.615784,1337.354248 
	C737.692139,1344.592896 737.165588,1350.310547 729.800293,1353.656982 
	C727.474792,1354.713501 725.664490,1356.978271 723.728577,1358.806763 
	C704.306702,1377.151733 696.545227,1399.459839 703.543274,1425.397827 
	C710.826965,1452.394043 728.703125,1470.306519 756.283020,1475.504028 
	C784.330933,1480.789673 807.923828,1471.181274 824.956787,1447.765137 
	C841.082031,1425.597046 842.045349,1401.644653 830.217651,1377.622070 
	C824.817444,1366.653931 816.006348,1357.554932 805.060242,1351.398315 
	C801.307129,1349.287476 800.042969,1346.987061 800.049255,1342.877197 
	C800.111450,1302.213867 800.013733,1261.550049 799.961731,1220.886475 
	C799.959656,1219.298706 799.961487,1217.710815 799.961487,1216.088013 
	C801.580688,1215.956543 802.401489,1215.830444 803.222168,1215.831665 
	C859.384033,1215.916260 915.545898,1216.047974 971.707703,1216.025635 
	C975.578186,1216.024048 976.438782,1217.371704 976.438110,1220.952271 
	C976.432251,1250.281616 976.595764,1279.611084 976.706299,1308.940430 
	C976.713501,1310.854858 976.707153,1312.769165 976.707153,1314.632690 
	C998.254028,1314.632690 1018.968445,1314.632690 1039.991943,1314.632690 
	C1039.991943,1281.512451 1039.991943,1248.877319 1039.991943,1216.228394 
	C1040.889404,1215.935425 1041.494385,1215.613647 1042.124390,1215.553589 
	C1044.776367,1215.300415 1047.432373,1215.050903 1050.092773,1214.933105 
	C1097.253540,1212.846802 1137.685181,1194.563110 1173.015747,1163.948730 
	C1194.652222,1145.200562 1210.768921,1122.319702 1222.604126,1096.464233 
	C1233.470093,1072.726196 1238.642334,1047.503540 1239.594360,1021.473450 
	C1239.771484,1016.630066 1241.586914,1015.847290 1245.830933,1015.880005 
	C1274.994263,1016.105103 1304.159058,1016.110046 1333.323486,1016.184875 
	C1335.103638,1016.189453 1336.883789,1016.185486 1338.498291,1016.185486 
	C1338.498291,994.831970 1338.498291,973.965881 1338.498291,952.776794 
	C1335.483032,952.776794 1332.995728,952.773254 1330.508545,952.777283 
	C1302.177856,952.823364 1273.846558,952.784241 1245.517334,953.009338 
	C1241.202515,953.043640 1239.847534,952.002075 1239.869873,947.474548 
	C1240.134888,893.813232 1240.179688,840.150879 1240.281006,786.488770 
	C1240.286743,783.400513 1240.281738,780.312195 1240.281738,777.206726 
	C1242.061646,776.999573 1242.878662,776.822998 1243.696045,776.821045 
	C1285.524414,776.720703 1327.352905,776.668518 1369.180908,776.481567 
	C1372.353271,776.467407 1373.376831,778.252380 1374.625122,780.523682 
	C1384.048096,797.669006 1399.184937,807.726074 1417.605835,811.926331 
	C1437.545776,816.472961 1456.057983,811.620239 1472.916382,799.696472 
	C1503.041504,778.389343 1509.636841,736.835693 1488.324097,707.225281 
	C1473.584229,686.746643 1453.297119,676.438904 1427.793701,677.893677 
	C1404.531006,679.220642 1386.817383,690.143860 1374.923950,710.197266 
	C1373.026001,713.397644 1370.961182,715.048584 1367.100708,715.040100 
	C1326.270752,714.950500 1285.440430,714.955994 1244.610474,715.052185 
	C1241.163574,715.060303 1240.009521,714.057739 1240.017578,710.507935 
	C1240.144165,654.513977 1240.143188,598.519653 1240.192993,542.525452 
	C1240.194214,541.071228 1240.437500,539.617310 1240.601562,537.788574 
	C1273.520996,537.788574 1306.076172,537.788574 1338.671387,537.788574 
	C1338.671387,516.782349 1338.671387,496.188385 1338.671387,474.901520 
	C1336.465332,474.901520 1334.524658,474.901062 1332.583862,474.901581 
	C1303.252686,474.909546 1273.921143,474.832886 1244.591064,475.022003 
	C1240.450073,475.048676 1239.538574,473.531860 1239.470581,469.817749 
	C1239.086182,448.843384 1235.326172,428.384918 1228.198608,408.720093 
	C1214.767334,371.662567 1191.983643,341.175995 1160.868164,317.146576 
	C1126.970703,290.968506 1088.256226,277.388885 1045.542358,275.426422 
	C1040.643677,275.201355 1039.812500,273.461853 1039.837036,269.241272 
	C1039.996582,241.744003 1039.975220,214.245651 1040.011719,186.747665 
	C1040.016235,183.292068 1040.012329,179.836472 1040.012329,176.935318 
	C1039.256714,176.293457 1039.134521,176.098801 1039.011841,176.098404 
	C1019.025879,176.033157 999.039612,175.940933 979.054749,176.064392 
	C978.160217,176.069916 976.509338,178.035217 976.504211,179.093918 
	C976.417297,197.087021 976.545898,215.081070 976.604492,233.074982 
	C976.644165,245.240555 976.552612,257.407593 976.724182,269.571106 
	C976.780396,273.555328 975.574829,275.587646 971.301941,274.979950 
	C970.160339,274.817566 968.973022,274.985291 967.806702,274.986206 
	C913.977905,275.028290 860.149048,275.070679 806.320251,275.098511 
	C804.885925,275.099274 803.451477,274.940002 801.396362,274.818756 
	C801.396362,271.826660 801.389771,269.188446 801.397461,266.550293 
	C801.488281,235.387939 801.605408,204.225647 801.657715,173.063217 
	C801.671997,164.567535 801.486511,156.071579 801.406189,147.575623 
	C801.374756,144.243927 802.366150,141.892853 805.587036,139.871307 
	C817.122375,132.631302 826.046570,122.659981 831.721191,110.352257 
	C847.892212,75.278694 830.799438,33.927464 794.705627,19.637606 
	C753.821899,3.451397 710.480896,26.956579 701.961853,72.626328 
z"/>
<path fill="#020202" opacity="1.000000" stroke="none" 
	d="
M702.017944,72.192490 
	C710.480896,26.956579 753.821899,3.451397 794.705627,19.637606 
	C830.799438,33.927464 847.892212,75.278694 831.721191,110.352257 
	C826.046570,122.659981 817.122375,132.631302 805.587036,139.871307 
	C802.366150,141.892853 801.374756,144.243927 801.406189,147.575623 
	C801.486511,156.071579 801.671997,164.567535 801.657715,173.063217 
	C801.605408,204.225647 801.488281,235.387939 801.397461,266.550293 
	C801.389771,269.188446 801.396362,271.826660 801.396362,274.818756 
	C803.451477,274.940002 804.885925,275.099274 806.320251,275.098511 
	C860.149048,275.070679 913.977905,275.028290 967.806702,274.986206 
	C968.973022,274.985291 970.160339,274.817566 971.301941,274.979950 
	C975.574829,275.587646 976.780396,273.555328 976.724182,269.571106 
	C976.552612,257.407593 976.644165,245.240555 976.604492,233.074982 
	C976.545898,215.081070 976.417297,197.087021 976.504211,179.093918 
	C976.509338,178.035217 978.160217,176.069916 979.054749,176.064392 
	C999.039612,175.940933 1019.025879,176.033157 1039.011841,176.098404 
	C1039.134521,176.098801 1039.256714,176.293457 1040.012329,176.935318 
	C1040.012329,179.836472 1040.016235,183.292068 1040.011719,186.747665 
	C1039.975220,214.245651 1039.996582,241.744003 1039.837036,269.241272 
	C1039.812500,273.461853 1040.643677,275.201355 1045.542358,275.426422 
	C1088.256226,277.388885 1126.970703,290.968506 1160.868164,317.146576 
	C1191.983643,341.175995 1214.767334,371.662567 1228.198608,408.720093 
	C1235.326172,428.384918 1239.086182,448.843384 1239.470581,469.817749 
	C1239.538574,473.531860 1240.450073,475.048676 1244.591064,475.022003 
	C1273.921143,474.832886 1303.252686,474.909546 1332.583862,474.901581 
	C1334.524658,474.901062 1336.465332,474.901520 1338.671387,474.901520 
	C1338.671387,496.188385 1338.671387,516.782349 1338.671387,537.788574 
	C1306.076172,537.788574 1273.520996,537.788574 1240.601562,537.788574 
	C1240.437500,539.617310 1240.194214,541.071228 1240.192993,542.525452 
	C1240.143188,598.519653 1240.144165,654.513977 1240.017578,710.507935 
	C1240.009521,714.057739 1241.163574,715.060303 1244.610474,715.052185 
	C1285.440430,714.955994 1326.270752,714.950500 1367.100708,715.040100 
	C1370.961182,715.048584 1373.026001,713.397644 1374.923950,710.197266 
	C1386.817383,690.143860 1404.531006,679.220642 1427.793701,677.893677 
	C1453.297119,676.438904 1473.584229,686.746643 1488.324097,707.225281 
	C1509.636841,736.835693 1503.041504,778.389343 1472.916382,799.696472 
	C1456.057983,811.620239 1437.545776,816.472961 1417.605835,811.926331 
	C1399.184937,807.726074 1384.048096,797.669006 1374.625122,780.523682 
	C1373.376831,778.252380 1372.353271,776.467407 1369.180908,776.481567 
	C1327.352905,776.668518 1285.524414,776.720703 1243.696045,776.821045 
	C1242.878662,776.822998 1242.061646,776.999573 1240.281738,777.206726 
	C1240.281738,780.312195 1240.286743,783.400513 1240.281006,786.488770 
	C1240.179688,840.150879 1240.134888,893.813232 1239.869873,947.474548 
	C1239.847534,952.002075 1241.202515,953.043640 1245.517334,953.009338 
	C1273.846558,952.784241 1302.177856,952.823364 1330.508545,952.777283 
	C1332.995728,952.773254 1335.483032,952.776794 1338.498291,952.776794 
	C1338.498291,973.965881 1338.498291,994.831970 1338.498291,1016.185486 
	C1336.883789,1016.185486 1335.103638,1016.189453 1333.323486,1016.184875 
	C1304.159058,1016.110046 1274.994263,1016.105103 1245.830933,1015.880005 
	C1241.586914,1015.847290 1239.771484,1016.630066 1239.594360,1021.473450 
	C1238.642334,1047.503540 1233.470093,1072.726196 1222.604126,1096.464233 
	C1210.768921,1122.319702 1194.652222,1145.200562 1173.015747,1163.948730 
	C1137.685181,1194.563110 1097.253540,1212.846802 1050.092773,1214.933105 
	C1047.432373,1215.050903 1044.776367,1215.300415 1042.124390,1215.553589 
	C1041.494385,1215.613647 1040.889404,1215.935425 1039.991943,1216.228394 
	C1039.991943,1248.877319 1039.991943,1281.512451 1039.991943,1314.632690 
	C1018.968445,1314.632690 998.254028,1314.632690 976.707153,1314.632690 
	C976.707153,1312.769165 976.713501,1310.854858 976.706299,1308.940430 
	C976.595764,1279.611084 976.432251,1250.281616 976.438110,1220.952271 
	C976.438782,1217.371704 975.578186,1216.024048 971.707703,1216.025635 
	C915.545898,1216.047974 859.384033,1215.916260 803.222168,1215.831665 
	C802.401489,1215.830444 801.580688,1215.956543 799.961487,1216.088013 
	C799.961487,1217.710815 799.959656,1219.298706 799.961731,1220.886475 
	C800.013733,1261.550049 800.111450,1302.213867 800.049255,1342.877197 
	C800.042969,1346.987061 801.307129,1349.287476 805.060242,1351.398315 
	C816.006348,1357.554932 824.817444,1366.653931 830.217651,1377.622070 
	C842.045349,1401.644653 841.082031,1425.597046 824.956787,1447.765137 
	C807.923828,1471.181274 784.330933,1480.789673 756.283020,1475.504028 
	C728.703125,1470.306519 710.826965,1452.394043 703.543274,1425.397827 
	C696.545227,1399.459839 704.306702,1377.151733 723.728577,1358.806763 
	C725.664490,1356.978271 727.474792,1354.713501 729.800293,1353.656982 
	C737.165588,1350.310547 737.692139,1344.592896 737.615784,1337.354248 
	C737.213379,1299.195679 737.378174,1261.031006 737.343811,1222.868530 
	C737.337708,1216.029541 737.332764,1216.005981 730.547729,1215.996460 
	C675.885437,1215.921387 621.223206,1215.854492 566.560913,1215.796875 
	C565.259277,1215.795532 563.957581,1215.931763 562.256714,1216.026001 
	C562.256714,1248.959229 562.256714,1281.690796 562.256714,1314.772827 
	C541.088501,1314.772827 520.329895,1314.772827 498.983856,1314.772827 
	C498.901184,1313.002441 498.748260,1311.253662 498.748474,1309.505005 
	C498.751831,1280.507202 498.783997,1251.509521 498.785431,1222.511719 
	C498.785767,1215.735596 498.748260,1215.368896 491.952118,1215.298706 
	C463.519989,1215.005127 436.587524,1208.015869 410.906433,1196.442139 
	C390.908813,1187.429565 373.236084,1174.870972 357.815308,1158.974365 
	C342.859619,1143.557129 329.848145,1126.875732 319.816376,1107.897827 
	C311.510834,1092.185791 305.943665,1075.491333 303.217590,1057.967651 
	C301.097961,1044.342041 299.750488,1030.596313 297.996216,1016.389038 
	C265.800110,1016.389038 232.951584,1016.389038 199.722168,1016.389038 
	C199.722168,995.227600 199.722168,974.463501 199.722168,952.845459 
	C201.438141,952.845459 203.337631,952.844971 205.237137,952.845520 
	C234.234756,952.853455 263.233063,952.765320 292.229370,952.964417 
	C297.056000,952.997498 298.847076,951.925659 298.832977,946.656494 
	C298.686035,891.827759 298.750824,836.998169 298.945465,782.169495 
	C298.962433,777.390503 297.597473,775.997864 292.788330,776.009888 
	C251.959244,776.112366 211.129440,775.917603 170.300308,776.011963 
	C168.486679,776.016174 165.939133,777.497314 164.979736,779.057068 
	C154.722290,795.732910 140.408539,807.080078 121.351250,811.629822 
	C104.168587,815.731934 87.802269,812.993652 72.320427,804.156677 
	C37.777992,784.440125 27.168642,738.243042 50.522621,706.499756 
	C68.159477,682.527344 92.294807,673.307129 121.207634,679.518127 
	C139.179779,683.378906 153.473862,694.116211 163.552795,709.768005 
	C165.484543,712.767822 167.467590,714.171143 171.111588,714.166382 
	C211.441757,714.114136 251.772110,714.210693 292.102417,714.243408 
	C294.061310,714.244995 296.020386,714.027588 298.756165,713.866394 
	C298.756165,710.069824 298.753143,706.616089 298.756592,703.162292 
	C298.810059,649.499634 298.794434,595.836670 299.030640,542.174805 
	C299.053345,537.012817 296.076935,537.475708 292.982971,537.507935 
	C264.822693,537.801025 236.663086,538.156128 208.503174,538.484009 
	C205.721329,538.516418 202.938782,538.488403 199.725800,538.488403 
	C199.725800,517.052246 199.725800,496.286224 199.725800,474.987854 
	C201.590347,474.895294 203.519119,474.713684 205.447601,474.716736 
	C234.111923,474.762054 262.776215,474.840332 291.440491,474.890015 
	C298.738800,474.902649 298.642761,474.861877 299.214935,467.502441 
	C301.466339,438.545593 307.225800,410.539795 320.990540,384.556091 
	C333.767456,360.437134 350.061005,339.001343 371.077393,321.712219 
	C401.115936,297.000977 435.589569,281.693359 474.433960,276.932129 
	C482.323914,275.965057 490.252563,275.313873 498.492432,274.483948 
	C498.492432,241.828171 498.492432,209.266907 498.492432,176.308197 
	C519.571838,176.308197 540.320618,176.308197 561.853882,176.308197 
	C561.853882,208.939148 561.853882,241.638855 561.853882,274.574646 
	C621.157837,274.574646 679.679077,274.574646 738.736511,274.574646 
	C738.736511,271.200378 738.735046,268.239136 738.736694,265.277924 
	C738.757874,226.447357 738.727539,187.616562 738.882874,148.786545 
	C738.898071,144.997467 737.666260,142.623398 734.603821,140.528961 
	C710.706726,124.185600 698.360352,102.221283 702.017944,72.192490 
M1177.992798,694.500000 
	C1177.994629,688.334473 1178.003052,682.168884 1177.997314,676.003357 
	C1177.935669,610.179688 1178.334839,544.351135 1177.637817,478.534119 
	C1177.209106,438.040894 1163.475220,402.567596 1132.720947,374.944763 
	C1120.575073,364.035614 1107.673218,354.162964 1092.355835,347.815216 
	C1072.628052,339.639679 1052.019287,336.865845 1030.869263,336.863892 
	C915.884644,336.853119 800.900085,336.794189 685.915466,336.819458 
	C623.257751,336.833221 560.595459,336.564209 497.944611,337.266022 
	C471.574097,337.561371 446.712555,344.666290 424.622711,359.952515 
	C401.209229,376.154602 382.894501,396.778625 371.906830,423.062500 
	C364.284241,441.296722 361.082184,460.801392 360.942139,480.614014 
	C360.737213,509.608521 360.887268,538.605530 360.881805,567.601501 
	C360.854034,714.581848 360.663605,861.562439 360.933472,1008.542236 
	C360.986908,1037.662109 367.233765,1065.484375 382.519653,1090.976318 
	C391.524780,1105.994019 402.788635,1118.594482 417.244568,1128.198853 
	C443.593445,1145.704956 472.822845,1153.934082 504.394867,1153.962524 
	C537.390442,1153.992188 570.386047,1153.956421 603.381653,1153.958252 
	C747.029541,1153.966431 890.677429,1153.996094 1034.325317,1153.965088 
	C1052.255981,1153.961182 1069.734741,1151.006348 1086.721558,1145.172485 
	C1101.095093,1140.236206 1113.466187,1132.053711 1125.057251,1122.389771 
	C1143.081177,1107.362427 1158.044434,1089.957764 1166.804565,1067.985474 
	C1174.715698,1048.142212 1178.038330,1027.356689 1178.021729,1005.958740 
	C1177.941284,902.472534 1177.991699,798.986267 1177.992798,694.500000 
z"/>
<path fill="#FEFEFE" opacity="1.000000" stroke="none" 
	d="
M1177.994385,695.000000 
	C1177.991699,798.986267 1177.941284,902.472534 1178.021729,1005.958740 
	C1178.038330,1027.356689 1174.715698,1048.142212 1166.804565,1067.985474 
	C1158.044434,1089.957764 1143.081177,1107.362427 1125.057251,1122.389771 
	C1113.466187,1132.053711 1101.095093,1140.236206 1086.721558,1145.172485 
	C1069.734741,1151.006348 1052.255981,1153.961182 1034.325317,1153.965088 
	C890.677429,1153.996094 747.029541,1153.966431 603.381653,1153.958252 
	C570.386047,1153.956421 537.390442,1153.992188 504.394867,1153.962524 
	C472.822845,1153.934082 443.593445,1145.704956 417.244568,1128.198853 
	C402.788635,1118.594482 391.524780,1105.994019 382.519653,1090.976318 
	C367.233765,1065.484375 360.986908,1037.662109 360.933472,1008.542236 
	C360.663605,861.562439 360.854034,714.581848 360.881805,567.601501 
	C360.887268,538.605530 360.737213,509.608521 360.942139,480.614014 
	C361.082184,460.801392 364.284241,441.296722 371.906830,423.062500 
	C382.894501,396.778625 401.209229,376.154602 424.622711,359.952515 
	C446.712555,344.666290 471.574097,337.561371 497.944611,337.266022 
	C560.595459,336.564209 623.257751,336.833221 685.915466,336.819458 
	C800.900085,336.794189 915.884644,336.853119 1030.869263,336.863892 
	C1052.019287,336.865845 1072.628052,339.639679 1092.355835,347.815216 
	C1107.673218,354.162964 1120.575073,364.035614 1132.720947,374.944763 
	C1163.475220,402.567596 1177.209106,438.040894 1177.637817,478.534119 
	C1178.334839,544.351135 1177.935669,610.179688 1177.997314,676.003357 
	C1178.003052,682.168884 1177.994629,688.334473 1177.994385,695.000000 
M1115.156372,1049.628052 
	C1117.443237,1043.929688 1120.143188,1038.358032 1121.936646,1032.508423 
	C1126.596680,1017.308899 1126.117920,1001.549072 1126.129395,985.904053 
	C1126.210449,875.577942 1126.236206,765.251831 1126.216553,654.925720 
	C1126.206665,599.096680 1126.219238,543.266846 1125.921753,487.438904 
	C1125.765259,458.059082 1115.758545,432.653961 1093.010864,413.291565 
	C1074.523560,397.555481 1053.122803,389.240112 1028.557251,389.248840 
	C930.730530,389.283630 832.903809,389.133179 735.077087,389.115295 
	C659.248962,389.101440 583.417786,388.805969 507.594086,389.405182 
	C476.773285,389.648773 451.215607,402.552795 432.338593,427.266022 
	C418.191254,445.787323 412.423920,466.985565 412.468384,490.299652 
	C412.715149,619.623657 412.619965,748.948242 412.696686,878.272644 
	C412.722870,922.433838 412.358887,966.605225 413.186340,1010.752930 
	C413.911407,1049.436279 440.628754,1084.010864 477.336273,1096.300537 
	C490.375214,1100.665894 503.809204,1100.966553 517.309570,1100.968262 
	C642.134766,1100.984375 766.959900,1100.999756 891.785095,1100.986938 
	C938.781616,1100.982056 985.785034,1101.382568 1032.772461,1100.704346 
	C1069.721069,1100.171021 1096.874146,1082.390259 1115.156372,1049.628052 
z"/>
<path fill="#010001" opacity="1.000000" stroke="none" 
	d="
M1115.005859,1049.969482 
	C1096.874146,1082.390259 1069.721069,1100.171021 1032.772461,1100.704346 
	C985.785034,1101.382568 938.781616,1100.982056 891.785095,1100.986938 
	C766.959900,1100.999756 642.134766,1100.984375 517.309570,1100.968262 
	C503.809204,1100.966553 490.375214,1100.665894 477.336273,1096.300537 
	C440.628754,1084.010864 413.911407,1049.436279 413.186340,1010.752930 
	C412.358887,966.605225 412.722870,922.433838 412.696686,878.272644 
	C412.619965,748.948242 412.715149,619.623657 412.468384,490.299652 
	C412.423920,466.985565 418.191254,445.787323 432.338593,427.266022 
	C451.215607,402.552795 476.773285,389.648773 507.594086,389.405182 
	C583.417786,388.805969 659.248962,389.101440 735.077087,389.115295 
	C832.903809,389.133179 930.730530,389.283630 1028.557251,389.248840 
	C1053.122803,389.240112 1074.523560,397.555481 1093.010864,413.291565 
	C1115.758545,432.653961 1125.765259,458.059082 1125.921753,487.438904 
	C1126.219238,543.266846 1126.206665,599.096680 1126.216553,654.925720 
	C1126.236206,765.251831 1126.210449,875.577942 1126.129395,985.904053 
	C1126.117920,1001.549072 1126.596680,1017.308899 1121.936646,1032.508423 
	C1120.143188,1038.358032 1117.443237,1043.929688 1115.005859,1049.969482 
M588.711121,922.213501 
	C588.904785,921.927490 589.098511,921.641479 589.694885,920.729431 
	C590.691895,917.872925 591.688965,915.016418 593.025879,911.699890 
	C593.283325,910.797119 593.540771,909.894287 594.148987,908.381836 
	C594.481750,907.269592 594.814514,906.157410 595.669434,904.621643 
	C595.899170,903.761780 596.128967,902.901978 596.784546,901.583496 
	C598.301514,897.243225 599.787781,892.891968 601.341125,888.564758 
	C606.668579,873.723267 612.086548,858.913818 617.304260,844.033997 
	C618.337158,841.088318 619.759705,839.956116 623.001587,839.962097 
	C674.272827,840.056641 725.544434,839.987061 776.815369,840.143738 
	C778.356812,840.148438 780.664307,841.867371 781.294922,843.348816 
	C783.888123,849.440918 785.970642,855.750366 788.245178,862.724365 
	C790.566895,869.483948 792.888550,876.243591 795.222656,883.740845 
	C799.657471,895.730347 804.163086,907.694397 808.475830,919.727661 
	C809.516052,922.630005 810.896606,923.946228 814.207947,923.882751 
	C828.857971,923.601868 843.513428,923.614197 858.166443,923.467224 
	C859.262268,923.456238 860.353882,923.027405 862.024963,922.668945 
	C858.907715,914.246216 855.958557,906.160217 852.924561,898.106201 
	C847.634888,884.064148 842.292969,870.041809 836.964478,855.262207 
	C833.961731,847.840454 830.958984,840.418640 827.904114,832.264587 
	C820.781250,814.132751 813.658386,796.000854 806.361023,777.110718 
	C802.780212,767.576843 799.188416,758.046997 795.620972,748.508118 
	C789.406921,731.892761 783.268311,715.248840 776.985596,698.659546 
	C770.827515,682.399231 764.529175,666.192078 758.206177,649.192505 
	C753.030212,635.403442 747.854248,621.614380 742.539001,607.046692 
	C740.017517,600.700745 737.496033,594.354736 735.006958,587.297363 
	C734.412048,586.030151 733.817139,584.762878 733.194641,582.803711 
	C732.503845,581.111572 731.813049,579.419373 731.196838,577.225342 
	C731.002686,576.769653 730.808472,576.313965 730.467224,575.102844 
	C728.887817,572.122803 727.426208,569.070251 725.660767,566.204834 
	C725.094849,565.286316 723.728943,564.305298 722.723511,564.299316 
	C713.490662,564.244751 704.256592,564.398560 694.120605,564.268677 
	C690.404602,564.370422 686.688660,564.472168 682.119385,564.328369 
	C677.722839,564.414429 673.559570,563.002930 671.432617,569.740601 
	C666.790161,584.446533 660.804932,598.730652 655.313599,613.166260 
	C641.665955,649.043030 627.869629,684.863770 614.355103,720.790527 
	C601.020935,756.237610 588.053528,791.822510 574.749512,827.281006 
	C563.428101,857.455200 551.851807,887.533569 540.411621,917.663269 
	C539.860596,919.114502 539.535645,920.651672 539.072815,922.262207 
	C551.181458,922.262207 562.600952,922.262207 574.832397,922.570618 
	C576.549377,922.457886 578.266418,922.345154 580.759827,922.519897 
	C581.848389,922.443481 582.936951,922.367126 584.818787,922.622375 
	C585.930847,922.470947 587.042908,922.319580 588.711121,922.213501 
M914.936646,923.158875 
	C927.292969,923.098083 939.649353,923.037292 952.468750,923.202148 
	C953.307129,923.115723 954.145447,923.029297 955.750183,922.928894 
	C956.016418,920.231812 956.282715,917.534790 956.759460,914.074036 
	C956.638306,912.772766 956.517151,911.471558 956.626465,909.278015 
	C956.520813,895.868958 956.415161,882.459839 956.623108,868.167053 
	C956.461792,858.115601 956.300415,848.064087 956.336121,837.222351 
	C956.239319,836.149353 956.142578,835.076355 956.250671,833.084961 
	C956.250671,741.432373 956.250671,649.779846 956.250671,558.078857 
	C953.635986,558.078857 951.819519,558.078857 949.089478,557.852905 
	C942.725037,557.936096 936.360657,558.019348 929.339844,557.924683 
	C928.894531,557.984680 928.449280,558.044678 927.100830,557.902832 
	C923.399902,557.952209 919.699036,558.001648 915.099548,557.852600 
	C913.162781,557.852600 911.226074,557.852600 908.955811,557.852600 
	C908.955811,561.469910 908.945190,564.603149 908.957275,567.736267 
	C909.214966,634.348145 909.549133,700.959900 909.699158,767.572021 
	C909.760254,794.709106 909.422607,821.847046 909.043335,849.900330 
	C909.035400,857.599731 909.027466,865.299194 908.800598,873.896973 
	C908.828247,877.589294 908.855896,881.281616 908.661987,885.877075 
	C908.595825,898.015503 908.529724,910.153992 908.774658,922.893738 
	C910.519226,922.938354 912.263733,922.982971 914.936646,923.158875 
z"/>
<path fill="#FCFCFC" opacity="1.000000" stroke="none" 
	d="
M595.147339,905.045227 
	C594.814514,906.157410 594.481750,907.269592 593.615540,908.632690 
	C592.055420,907.021484 590.248535,905.181763 590.194519,903.291992 
	C590.122864,900.784668 591.276978,898.187134 592.160583,895.720093 
	C593.665283,891.519287 592.922974,890.103943 588.589172,890.029968 
	C582.358215,889.923584 576.119934,889.849060 569.892700,890.032104 
	C562.430237,890.251282 560.376770,891.565552 559.399658,898.714111 
	C558.394714,906.066772 559.789856,914.621399 567.365295,914.743469 
	C573.019592,914.834656 578.691711,913.397827 584.367737,912.744934 
	C587.126465,912.427551 589.912415,912.347412 592.686035,912.159912 
	C591.688965,915.016418 590.691895,917.872925 589.238159,921.083069 
	C588.625671,921.510803 588.469910,921.584900 588.209900,921.257568 
	C587.258850,920.286438 586.412048,919.716736 585.565247,919.147034 
	C585.052002,920.194946 584.538757,921.242859 584.025513,922.290771 
	C582.936951,922.367126 581.848389,922.443481 580.365051,921.961975 
	C578.673706,920.618408 577.442200,919.521667 576.042542,919.229126 
	C575.599365,919.136414 574.707214,921.190552 574.020508,922.262207 
	C562.600952,922.262207 551.181458,922.262207 539.072815,922.262207 
	C539.535645,920.651672 539.860596,919.114502 540.411621,917.663269 
	C551.851807,887.533569 563.428101,857.455200 574.749512,827.281006 
	C588.053528,791.822510 601.020935,756.237610 614.355103,720.790527 
	C627.869629,684.863770 641.665955,649.043030 655.313599,613.166260 
	C660.804932,598.730652 666.790161,584.446533 671.432617,569.740601 
	C673.559570,563.002930 677.722839,564.414429 682.583496,564.830811 
	C683.579285,565.871643 684.106201,566.874023 684.643250,566.879395 
	C694.078308,566.974731 703.514465,566.948303 712.950439,566.948303 
	C708.389954,565.999695 703.816162,566.117065 699.254761,565.930542 
	C697.826904,565.872131 696.432556,564.994385 695.022888,564.491699 
	C704.256592,564.398560 713.490662,564.244751 722.723511,564.299316 
	C723.728943,564.305298 725.094849,565.286316 725.660767,566.204834 
	C727.426208,569.070251 728.887817,572.122803 730.157532,575.532227 
	C729.387024,576.734070 728.926208,577.506592 728.465332,578.279175 
	C729.351013,578.095215 730.236633,577.911255 731.122253,577.727234 
	C731.813049,579.419373 732.503845,581.111572 733.055420,583.509155 
	C731.601501,586.564758 731.781799,588.103821 734.974487,588.008789 
	C737.496033,594.354736 740.017517,600.700745 742.241333,607.599487 
	C741.346741,611.363464 740.415039,614.553772 740.213135,617.789612 
	C739.497314,629.266296 739.030579,640.758423 738.432739,652.996948 
	C743.532349,651.759460 749.493469,656.112061 753.456543,649.427856 
	C755.050903,649.603821 756.671692,649.782715 758.292419,649.961548 
	C764.529175,666.192078 770.827515,682.399231 776.985596,698.659546 
	C783.268311,715.248840 789.406921,731.892761 795.620972,748.508118 
	C799.188416,758.046997 802.780212,767.576843 806.028137,777.544434 
	C804.034424,778.645752 802.426453,779.647583 800.703125,779.920410 
	C794.720520,780.867859 794.120911,781.630432 795.355896,787.635681 
	C795.653198,789.081360 795.926392,790.555725 795.976196,792.024841 
	C796.351440,803.092346 796.526672,814.169617 797.141113,825.222900 
	C797.244324,827.078735 799.065186,828.907410 800.282715,830.612732 
	C801.373108,832.140076 803.585754,833.354614 803.814819,834.924316 
	C804.833679,841.905396 805.317749,848.964417 805.828491,856.239746 
	C805.109558,856.659302 804.557190,856.834351 803.668945,857.151489 
	C798.302368,858.855591 793.271606,860.417725 788.240906,861.979919 
	C785.970642,855.750366 783.888123,849.440918 781.294922,843.348816 
	C780.664307,841.867371 778.356812,840.148438 776.815369,840.143738 
	C725.544434,839.987061 674.272827,840.056641 623.001587,839.962097 
	C619.759705,839.956116 618.337158,841.088318 617.304260,844.033997 
	C612.086548,858.913818 606.668579,873.723267 601.341125,888.564758 
	C599.787781,892.891968 598.301514,897.243225 596.181458,901.805786 
	C594.786621,902.452332 593.994873,902.876587 593.203125,903.300903 
	C593.851196,903.882324 594.499268,904.463806 595.147339,905.045227 
M738.995361,723.012207 
	C741.286743,723.931946 744.368591,724.228333 745.694214,725.909485 
	C747.994385,728.826721 749.401978,732.521057 750.839417,736.030518 
	C754.403442,744.731934 757.571411,753.600891 761.326050,762.216125 
	C762.705139,765.380493 765.017090,770.215210 767.368408,770.503967 
	C775.659241,771.522400 784.151733,770.900024 792.807007,770.900024 
	C792.723145,769.257263 792.875916,768.233459 792.594543,767.347534 
	C788.977295,755.960205 785.169189,744.631714 781.699585,733.200195 
	C780.364136,728.799805 777.492432,724.771729 778.839233,719.589233 
	C779.525879,716.947205 777.937988,714.801270 774.559387,714.987976 
	C761.675232,715.700073 748.788208,716.359375 735.276245,716.647583 
	C723.715332,684.148560 712.154419,651.649536 700.593506,619.150452 
	C700.085022,619.273743 699.576477,619.397034 699.067932,619.520386 
	C698.595215,620.548584 698.043335,621.548340 697.661377,622.609314 
	C690.740112,641.833252 683.893799,661.084351 676.914734,680.287231 
	C672.442993,692.591187 667.781982,704.826416 662.468323,716.786072 
	C658.099426,716.065613 653.747314,714.880676 649.358093,714.722046 
	C640.380615,714.397583 631.383301,714.624756 621.927063,714.624756 
	C622.389343,717.156372 622.890747,718.437256 622.808960,719.679749 
	C621.931030,733.021606 620.927185,746.355164 620.043457,759.696716 
	C619.857117,762.509644 619.839905,765.363342 620.116211,768.161560 
	C620.213379,769.145569 621.388489,770.791260 622.129639,770.824097 
	C629.066467,771.132202 633.235962,772.114990 636.367676,764.242920 
	C637.285278,761.936340 637.998230,759.534241 639.079834,757.309509 
	C643.488037,748.242004 647.842651,739.140686 652.592834,730.252686 
	C653.754272,728.079529 655.913635,725.048035 659.149963,729.142456 
	C651.375427,750.289673 643.600891,771.436829 635.705566,792.912659 
	C678.575317,792.912659 720.415833,792.912659 762.700195,792.912659 
	C761.800964,790.127991 761.096191,787.756836 760.273499,785.427246 
	C752.924438,764.616882 745.554565,743.813843 738.995361,723.012207 
M661.500793,618.996216 
	C657.621033,629.010864 653.793701,639.046265 649.833618,649.028992 
	C648.419250,652.594299 649.549194,654.043274 653.231201,654.008118 
	C657.730713,653.965149 662.231018,654.000122 666.730957,653.999817 
	C675.621460,653.999207 675.576172,653.996338 676.037476,645.304688 
	C676.150818,643.169617 676.890320,641.063049 676.958435,638.931091 
	C677.366943,626.143066 677.863525,613.351807 677.885437,600.560852 
	C677.892761,596.275269 678.850403,594.788513 683.404358,594.891113 
	C697.063965,595.199219 710.735596,595.081055 724.401245,594.966797 
	C731.988037,594.903381 733.071960,592.943298 729.394226,586.669556 
	C729.057922,586.095886 728.729858,585.507812 728.484375,584.892029 
	C725.234680,576.740417 718.671265,571.846985 709.975586,572.091858 
	C701.552490,572.329041 693.154480,573.376709 684.737915,573.960266 
	C680.351196,574.264404 679.074707,576.460876 678.820801,580.780518 
	C678.546814,585.439758 678.334106,591.366089 675.542664,594.360840 
	C668.957092,601.425903 665.514404,609.827087 661.500793,618.996216 
M682.684204,829.004211 
	C699.332031,829.004028 715.979919,828.977783 732.627625,829.030579 
	C735.228027,829.038818 737.206299,828.904114 737.035095,825.421082 
	C736.614014,816.851807 736.395569,808.272461 736.113159,800.200195 
	C716.848206,800.200195 698.236328,800.200195 678.717590,800.200195 
	C678.473877,808.989563 678.285950,817.391663 677.982788,825.789490 
	C677.880920,828.613037 679.420410,829.179199 682.684204,829.004211 
M609.504517,830.995056 
	C611.665283,830.992432 613.900452,831.320862 615.957764,830.858215 
	C617.119690,830.596924 618.834045,829.060181 618.864502,828.054565 
	C619.375793,811.148193 619.631714,794.234253 620.025269,777.323914 
	C620.088623,774.602539 618.804016,773.872864 616.379089,773.978516 
	C613.890625,774.087036 611.203430,773.420898 608.950562,774.156982 
	C606.353210,775.005554 602.897034,776.471497 601.953308,778.612427 
	C595.477234,793.304199 589.435364,808.193176 583.542664,823.132629 
	C581.772278,827.620972 583.334229,829.596008 588.219788,829.941406 
	C594.982605,830.419434 601.762573,830.655518 609.504517,830.995056 
M665.491699,832.995117 
	C657.869141,832.664612 650.249451,832.210632 642.623291,832.039062 
	C635.318420,831.874695 628.006836,832.003540 620.698242,832.003540 
	C633.130432,835.054871 672.704407,835.961243 677.260010,832.995117 
	C673.026001,832.995117 669.748840,832.995117 665.491699,832.995117 
M774.778748,833.985168 
	C780.831055,833.985168 786.883423,833.985168 792.935730,833.985168 
	C792.932190,833.475159 792.928650,832.965210 792.925110,832.455200 
	C775.471008,832.455200 758.016846,832.455200 740.562744,832.455200 
	C742.116516,832.815979 743.800659,832.950500 745.487427,833.008179 
	C754.936157,833.331543 764.385376,833.636414 774.778748,833.985168 
z"/>
<path fill="#FDFDFD" opacity="1.000000" stroke="none" 
	d="
M928.003967,558.104614 
	C928.449280,558.044678 928.894531,557.984680 929.768921,558.402100 
	C936.609009,559.062500 943.019897,559.256775 949.432190,559.371216 
	C949.614685,559.374512 949.812378,558.528748 950.002991,558.078857 
	C951.819519,558.078857 953.635986,558.078857 956.250671,558.078857 
	C956.250671,649.779846 956.250671,741.432373 955.799805,833.494751 
	C952.975037,830.335938 949.792419,827.044067 948.450012,823.122314 
	C947.045837,819.020264 946.787292,814.264099 947.128479,809.879517 
	C947.908264,799.857971 949.137756,789.855591 950.624390,779.911194 
	C951.470825,774.249084 950.879700,773.022034 945.161926,773.001221 
	C938.172607,772.975769 931.182861,772.954407 924.193970,773.013367 
	C917.500000,773.069763 916.098877,774.815125 917.087341,781.502930 
	C919.424072,797.312012 919.745178,813.270874 917.634460,829.002808 
	C916.707336,835.913269 912.166443,842.338867 909.266357,848.984619 
	C909.422607,821.847046 909.760254,794.709106 909.699158,767.572021 
	C909.549133,700.959900 909.214966,634.348145 908.957275,567.736267 
	C908.945190,564.603149 908.955811,561.469910 908.955811,557.852600 
	C911.226074,557.852600 913.162781,557.852600 915.642700,558.340210 
	C920.232361,560.337158 924.265686,561.632324 928.003967,558.104614 
M943.184082,654.992920 
	C937.356201,654.995300 931.528381,654.996216 925.700500,655.000488 
	C919.251160,655.005249 917.576233,656.956604 917.995972,663.575012 
	C918.420227,670.264221 919.032776,676.970947 918.912354,683.658264 
	C918.733765,693.567810 917.981445,703.467102 917.437500,714.070435 
	C928.627197,713.444885 939.661987,715.183289 950.815857,712.869507 
	C946.745178,693.020264 947.111328,673.701721 950.063049,654.006165 
	C947.332458,654.456604 945.717590,654.723022 943.184082,654.992920 
M918.703613,572.664551 
	C918.136414,577.731689 917.265503,582.788330 917.090149,587.869019 
	C916.925049,592.652466 919.307007,594.836060 924.094299,594.970581 
	C928.743530,595.101196 933.399414,594.982239 938.052185,595.005554 
	C950.584351,595.068359 949.369324,595.634094 947.837769,584.074585 
	C947.223572,579.438721 946.209106,574.169983 943.487061,570.651123 
	C938.746399,564.522522 924.011597,565.835266 918.703613,572.664551 
z"/>
<path fill="#F1F2F2" opacity="1.000000" stroke="none" 
	d="
M909.154907,849.442505 
	C912.166443,842.338867 916.707336,835.913269 917.634460,829.002808 
	C919.745178,813.270874 919.424072,797.312012 917.087341,781.502930 
	C916.098877,774.815125 917.500000,773.069763 924.193970,773.013367 
	C931.182861,772.954407 938.172607,772.975769 945.161926,773.001221 
	C950.879700,773.022034 951.470825,774.249084 950.624390,779.911194 
	C949.137756,789.855591 947.908264,799.857971 947.128479,809.879517 
	C946.787292,814.264099 947.045837,819.020264 948.450012,823.122314 
	C949.792419,827.044067 952.975037,830.335938 955.697327,833.953979 
	C956.142578,835.076355 956.239319,836.149353 955.833557,837.622437 
	C953.539856,837.332458 951.741455,836.660522 949.959778,835.946960 
	C948.473816,835.351868 947.008301,834.190613 945.532166,834.188110 
	C941.919800,834.181946 938.307983,834.719421 934.693359,835.005188 
	C924.995178,835.771729 919.401855,839.713745 920.295715,847.692688 
	C921.524902,858.664551 912.859558,864.444092 909.491638,872.889893 
	C909.457520,872.975281 909.182190,872.964417 909.019531,872.998535 
	C909.027466,865.299194 909.035400,857.599731 909.154907,849.442505 
z"/>
<path fill="#E4E6E6" opacity="1.000000" stroke="none" 
	d="
M908.910034,873.447754 
	C909.182190,872.964417 909.457520,872.975281 909.491638,872.889893 
	C912.859558,864.444092 921.524902,858.664551 920.295715,847.692688 
	C919.401855,839.713745 924.995178,835.771729 934.693359,835.005188 
	C938.307983,834.719421 941.919800,834.181946 945.532166,834.188110 
	C947.008301,834.190613 948.473816,835.351868 949.959778,835.946960 
	C951.741455,836.660522 953.539856,837.332458 955.734985,838.017578 
	C956.300415,848.064087 956.461792,858.115601 956.136230,868.774414 
	C955.431885,869.974976 955.026123,870.567627 955.024536,871.161316 
	C954.992615,883.018616 954.969482,894.876221 955.072937,906.732727 
	C955.082947,907.882385 955.934814,909.024658 956.395996,910.170288 
	C956.517151,911.471558 956.638306,912.772766 956.239380,914.521484 
	C952.052368,916.309448 948.480835,918.297058 944.698547,918.854492 
	C937.071411,919.978516 929.335327,920.782349 921.633728,920.877747 
	C911.652893,921.001343 909.954163,918.894775 910.011108,908.956360 
	C910.014893,908.295471 910.039368,907.634705 910.391174,907.037476 
	C911.201538,907.531860 911.946411,907.879578 912.107422,908.405884 
	C914.421448,915.970947 921.581787,915.478943 927.114197,916.651917 
	C930.822876,917.438293 935.114014,915.561523 939.129822,914.798706 
	C949.048584,912.914368 951.416992,910.412109 950.859741,899.877563 
	C950.461609,892.349976 948.996155,884.843750 947.496338,877.431274 
	C947.050842,875.229187 945.319336,872.587646 943.408997,871.513550 
	C937.780579,868.348999 925.460632,871.258484 922.061096,876.650452 
	C918.919617,881.633057 912.497742,884.033020 911.399353,890.533264 
	C911.359924,890.766785 910.523621,890.865662 910.043762,890.615356 
	C909.647095,888.460266 909.265320,886.717102 908.883606,884.973938 
	C908.855896,881.281616 908.828247,877.589294 908.910034,873.447754 
z"/>
<path fill="#F2F2F2" opacity="1.000000" stroke="none" 
	d="
M836.972900,856.011169 
	C842.292969,870.041809 847.634888,884.064148 852.924561,898.106201 
	C855.958557,906.160217 858.907715,914.246216 862.024963,922.668945 
	C860.353882,923.027405 859.262268,923.456238 858.166443,923.467224 
	C843.513428,923.614197 828.857971,923.601868 814.207947,923.882751 
	C810.896606,923.946228 809.516052,922.630005 808.475830,919.727661 
	C804.163086,907.694397 799.657471,895.730347 795.565063,883.286072 
	C796.253845,880.728455 796.600220,878.625610 797.190125,875.044067 
	C801.078735,878.247986 805.265808,880.652344 808.033569,884.172546 
	C816.654358,895.137268 813.340027,909.501343 818.274719,921.863953 
	C825.351990,922.929810 830.286377,917.822998 835.874390,914.618225 
	C841.527527,911.376160 842.275391,908.668579 840.064514,902.749268 
	C836.894653,894.262695 833.141357,885.989075 832.310425,876.753296 
	C831.942383,872.662964 832.030701,869.155518 835.832336,866.737366 
	C838.214722,865.222107 838.883911,863.377869 837.002319,860.651367 
	C836.987305,858.872192 836.980103,857.441650 836.972900,856.011169 
z"/>
<path fill="#ECEDED" opacity="1.000000" stroke="none" 
	d="
M837.010254,861.000000 
	C838.883911,863.377869 838.214722,865.222107 835.832336,866.737366 
	C832.030701,869.155518 831.942383,872.662964 832.310425,876.753296 
	C833.141357,885.989075 836.894653,894.262695 840.064514,902.749268 
	C842.275391,908.668579 841.527527,911.376160 835.874390,914.618225 
	C830.286377,917.822998 825.351990,922.929810 818.274719,921.863953 
	C813.340027,909.501343 816.654358,895.137268 808.033569,884.172546 
	C805.265808,880.652344 801.078735,878.247986 797.190125,875.044067 
	C796.600220,878.625610 796.253845,880.728455 795.558899,882.917236 
	C792.888550,876.243591 790.566895,869.483948 788.243042,862.352173 
	C793.271606,860.417725 798.302368,858.855591 803.662598,857.525757 
	C802.447388,859.492981 801.170471,862.274048 799.303833,862.751831 
	C794.996277,863.854492 795.514648,866.985718 796.371399,869.313171 
	C796.832153,870.564941 799.938904,871.173706 801.937073,871.445740 
	C804.498779,871.794556 807.903381,870.461548 809.617493,871.696106 
	C815.134399,875.669983 819.201660,872.948120 823.547974,870.000671 
	C828.015442,866.971008 832.521240,863.997864 837.010254,861.000000 
z"/>
<path fill="#F2F2F2" opacity="1.000000" stroke="none" 
	d="
M805.995117,855.995300 
	C805.317749,848.964417 804.833679,841.905396 803.814819,834.924316 
	C803.585754,833.354614 801.373108,832.140076 800.282715,830.612732 
	C799.065186,828.907410 797.244324,827.078735 797.141113,825.222900 
	C796.526672,814.169617 796.351440,803.092346 795.976196,792.024841 
	C795.926392,790.555725 795.653198,789.081360 795.355896,787.635681 
	C794.120911,781.630432 794.720520,780.867859 800.703125,779.920410 
	C802.426453,779.647583 804.034424,778.645752 806.115417,777.923584 
	C813.658386,796.000854 820.781250,814.132751 827.595703,832.580261 
	C823.014282,830.653259 818.651184,831.880798 814.776245,833.475708 
	C809.906555,835.480103 809.457092,840.334778 808.887451,845.070068 
	C808.441956,848.774170 806.996338,852.358032 805.995117,855.995300 
z"/>
<path fill="#E4E6E6" opacity="1.000000" stroke="none" 
	d="
M805.828491,856.239746 
	C806.996338,852.358032 808.441956,848.774170 808.887451,845.070068 
	C809.457092,840.334778 809.906555,835.480103 814.776245,833.475708 
	C818.651184,831.880798 823.014282,830.653259 827.621826,832.946411 
	C830.958984,840.418640 833.961731,847.840454 836.968689,855.636719 
	C836.980103,857.441650 836.987305,858.872192 837.002319,860.651367 
	C832.521240,863.997864 828.015442,866.971008 823.547974,870.000671 
	C819.201660,872.948120 815.134399,875.669983 809.617493,871.696106 
	C807.903381,870.461548 804.498779,871.794556 801.937073,871.445740 
	C799.938904,871.173706 796.832153,870.564941 796.371399,869.313171 
	C795.514648,866.985718 794.996277,863.854492 799.303833,862.751831 
	C801.170471,862.274048 802.447388,859.492981 803.998535,857.383789 
	C804.557190,856.834351 805.109558,856.659302 805.828491,856.239746 
z"/>
<path fill="#F4F5F6" opacity="1.000000" stroke="none" 
	d="
M592.855957,911.929871 
	C589.912415,912.347412 587.126465,912.427551 584.367737,912.744934 
	C578.691711,913.397827 573.019592,914.834656 567.365295,914.743469 
	C559.789856,914.621399 558.394714,906.066772 559.399658,898.714111 
	C560.376770,891.565552 562.430237,890.251282 569.892700,890.032104 
	C576.119934,889.849060 582.358215,889.923584 588.589172,890.029968 
	C592.922974,890.103943 593.665283,891.519287 592.160583,895.720093 
	C591.276978,898.187134 590.122864,900.784668 590.194519,903.291992 
	C590.248535,905.181763 592.055420,907.021484 593.440186,908.937500 
	C593.540771,909.894287 593.283325,910.797119 592.855957,911.929871 
z"/>
<path fill="#F0F1F1" opacity="1.000000" stroke="none" 
	d="
M758.249268,649.577026 
	C756.671692,649.782715 755.050903,649.603821 753.456543,649.427856 
	C749.493469,656.112061 743.532349,651.759460 738.432739,652.996948 
	C739.030579,640.758423 739.497314,629.266296 740.213135,617.789612 
	C740.415039,614.553772 741.346741,611.363464 742.311035,607.988770 
	C747.854248,621.614380 753.030212,635.403442 758.249268,649.577026 
z"/>
<path fill="#F1F2F2" opacity="1.000000" stroke="none" 
	d="
M908.772827,885.425537 
	C909.265320,886.717102 909.647095,888.460266 910.031616,891.079224 
	C910.041016,896.961365 910.047668,901.967590 910.054260,906.973877 
	C910.039368,907.634705 910.014893,908.295471 910.011108,908.956360 
	C909.954163,918.894775 911.652893,921.001343 921.633728,920.877747 
	C929.335327,920.782349 937.071411,919.978516 944.698547,918.854492 
	C948.480835,918.297058 952.052368,916.309448 956.134094,914.903320 
	C956.282715,917.534790 956.016418,920.231812 955.174683,922.703857 
	C953.734680,922.644714 952.870178,922.810608 952.005676,922.976562 
	C939.649353,923.037292 927.292969,923.098083 914.157959,922.840698 
	C911.740723,922.445801 910.102112,922.369141 908.463562,922.292480 
	C908.529724,910.153992 908.595825,898.015503 908.772827,885.425537 
z"/>
<path fill="#FDFDFD" opacity="1.000000" stroke="none" 
	d="
M956.511230,909.724121 
	C955.934814,909.024658 955.082947,907.882385 955.072937,906.732727 
	C954.969482,894.876221 954.992615,883.018616 955.024536,871.161316 
	C955.026123,870.567627 955.431885,869.974976 955.979492,869.216309 
	C956.415161,882.459839 956.520813,895.868958 956.511230,909.724121 
z"/>
<path fill="#F4F5F5" opacity="1.000000" stroke="none" 
	d="
M694.571777,564.380188 
	C696.432556,564.994385 697.826904,565.872131 699.254761,565.930542 
	C703.816162,566.117065 708.389954,565.999695 712.950439,566.948303 
	C703.514465,566.948303 694.078308,566.974731 684.643250,566.879395 
	C684.106201,566.874023 683.579285,565.871643 683.010132,564.953613 
	C686.688660,564.472168 690.404602,564.370422 694.571777,564.380188 
z"/>
<path fill="#F4F5F6" opacity="1.000000" stroke="none" 
	d="
M949.546265,557.965881 
	C949.812378,558.528748 949.614685,559.374512 949.432190,559.371216 
	C943.019897,559.256775 936.609009,559.062500 930.097046,558.490967 
	C936.360657,558.019348 942.725037,557.936096 949.546265,557.965881 
z"/>
<path fill="#F4F5F6" opacity="1.000000" stroke="none" 
	d="
M927.552368,558.003784 
	C924.265686,561.632324 920.232361,560.337158 916.092041,558.439392 
	C919.699036,558.001648 923.399902,557.952209 927.552368,558.003784 
z"/>
<path fill="#F4F5F6" opacity="1.000000" stroke="none" 
	d="
M574.426453,922.416382 
	C574.707214,921.190552 575.599365,919.136414 576.042542,919.229126 
	C577.442200,919.521667 578.673706,920.618408 579.976807,921.818237 
	C578.266418,922.345154 576.549377,922.457886 574.426453,922.416382 
z"/>
<path fill="#F4F5F6" opacity="1.000000" stroke="none" 
	d="
M584.422119,922.456543 
	C584.538757,921.242859 585.052002,920.194946 585.565247,919.147034 
	C586.412048,919.716736 587.258850,920.286438 588.112061,921.366699 
	C588.118469,921.877136 588.154968,922.168152 588.154968,922.168152 
	C587.042908,922.319580 585.930847,922.470947 584.422119,922.456543 
z"/>
<path fill="#CFCECF" opacity="1.000000" stroke="none" 
	d="
M908.619141,922.593140 
	C910.102112,922.369141 911.740723,922.445801 913.693787,922.775024 
	C912.263733,922.982971 910.519226,922.938354 908.619141,922.593140 
z"/>
<path fill="#F4F5F6" opacity="1.000000" stroke="none" 
	d="
M595.408386,904.833435 
	C594.499268,904.463806 593.851196,903.882324 593.203125,903.300903 
	C593.994873,902.876587 594.786621,902.452332 595.968506,902.035034 
	C596.128967,902.901978 595.899170,903.761780 595.408386,904.833435 
z"/>
<path fill="#F2F2F2" opacity="1.000000" stroke="none" 
	d="
M731.159546,577.476318 
	C730.236633,577.911255 729.351013,578.095215 728.465332,578.279175 
	C728.926208,577.506592 729.387024,576.734070 730.231079,575.909912 
	C730.808472,576.313965 731.002686,576.769653 731.159546,577.476318 
z"/>
<path fill="#F2F2F2" opacity="1.000000" stroke="none" 
	d="
M734.990723,587.653076 
	C731.781799,588.103821 731.601501,586.564758 733.069275,583.855103 
	C733.817139,584.762878 734.412048,586.030151 734.990723,587.653076 
z"/>
<path fill="#CFCECF" opacity="1.000000" stroke="none" 
	d="
M952.237183,923.089355 
	C952.870178,922.810608 953.734680,922.644714 954.791504,922.710815 
	C954.145447,923.029297 953.307129,923.115723 952.237183,923.089355 
z"/>
<path fill="#9A9A9A" opacity="1.000000" stroke="none" 
	d="
M588.433044,922.190796 
	C588.154968,922.168152 588.118469,921.877136 588.216309,921.768066 
	C588.469910,921.584900 588.625671,921.510803 589.036804,921.396118 
	C589.098511,921.641479 588.904785,921.927490 588.433044,922.190796 
z"/>
<path fill="#030203" opacity="1.000000" stroke="none" 
	d="
M663.205872,717.092468 
	C667.781982,704.826416 672.442993,692.591187 676.914734,680.287231 
	C683.893799,661.084351 690.740112,641.833252 697.661377,622.609314 
	C698.043335,621.548340 698.595215,620.548584 699.067932,619.520386 
	C699.576477,619.397034 700.085022,619.273743 700.593506,619.150452 
	C712.154419,651.649536 723.715332,684.148560 735.649658,717.195129 
	C736.745667,719.497986 737.468262,721.253357 738.190857,723.008667 
	C745.554565,743.813843 752.924438,764.616882 760.273499,785.427246 
	C761.096191,787.756836 761.800964,790.127991 762.700195,792.912659 
	C720.415833,792.912659 678.575317,792.912659 635.705566,792.912659 
	C643.600891,771.436829 651.375427,750.289673 659.441223,728.518738 
	C660.890259,724.294189 662.048096,720.693298 663.205872,717.092468 
z"/>
<path fill="#F2F2F2" opacity="1.000000" stroke="none" 
	d="
M661.679321,618.654053 
	C665.514404,609.827087 668.957092,601.425903 675.542664,594.360840 
	C678.334106,591.366089 678.546814,585.439758 678.820801,580.780518 
	C679.074707,576.460876 680.351196,574.264404 684.737915,573.960266 
	C693.154480,573.376709 701.552490,572.329041 709.975586,572.091858 
	C718.671265,571.846985 725.234680,576.740417 728.484375,584.892029 
	C728.729858,585.507812 729.057922,586.095886 729.394226,586.669556 
	C733.071960,592.943298 731.988037,594.903381 724.401245,594.966797 
	C710.735596,595.081055 697.063965,595.199219 683.404358,594.891113 
	C678.850403,594.788513 677.892761,596.275269 677.885437,600.560852 
	C677.863525,613.351807 677.366943,626.143066 676.958435,638.931091 
	C676.890320,641.063049 676.150818,643.169617 676.037476,645.304688 
	C675.576172,653.996338 675.621460,653.999207 666.730957,653.999817 
	C662.231018,654.000122 657.730713,653.965149 653.231201,654.008118 
	C649.549194,654.043274 648.419250,652.594299 649.833618,649.028992 
	C653.793701,639.046265 657.621033,629.010864 661.679321,618.654053 
z"/>
<path fill="#F0F1F1" opacity="1.000000" stroke="none" 
	d="
M738.593140,723.010437 
	C737.468262,721.253357 736.745667,719.497986 735.962646,717.390564 
	C748.788208,716.359375 761.675232,715.700073 774.559387,714.987976 
	C777.937988,714.801270 779.525879,716.947205 778.839233,719.589233 
	C777.492432,724.771729 780.364136,728.799805 781.699585,733.200195 
	C785.169189,744.631714 788.977295,755.960205 792.594543,767.347534 
	C792.875916,768.233459 792.723145,769.257263 792.807007,770.900024 
	C784.151733,770.900024 775.659241,771.522400 767.368408,770.503967 
	C765.017090,770.215210 762.705139,765.380493 761.326050,762.216125 
	C757.571411,753.600891 754.403442,744.731934 750.839417,736.030518 
	C749.401978,732.521057 747.994385,728.826721 745.694214,725.909485 
	C744.368591,724.228333 741.286743,723.931946 738.593140,723.010437 
z"/>
<path fill="#F0F1F1" opacity="1.000000" stroke="none" 
	d="
M682.211121,829.003235 
	C679.420410,829.179199 677.880920,828.613037 677.982788,825.789490 
	C678.285950,817.391663 678.473877,808.989563 678.717590,800.200195 
	C698.236328,800.200195 716.848206,800.200195 736.113159,800.200195 
	C736.395569,808.272461 736.614014,816.851807 737.035095,825.421082 
	C737.206299,828.904114 735.228027,829.038818 732.627625,829.030579 
	C715.979919,828.977783 699.332031,829.004028 682.211121,829.003235 
z"/>
<path fill="#F0F1F1" opacity="1.000000" stroke="none" 
	d="
M609.019836,830.995117 
	C601.762573,830.655518 594.982605,830.419434 588.219788,829.941406 
	C583.334229,829.596008 581.772278,827.620972 583.542664,823.132629 
	C589.435364,808.193176 595.477234,793.304199 601.953308,778.612427 
	C602.897034,776.471497 606.353210,775.005554 608.950562,774.156982 
	C611.203430,773.420898 613.890625,774.087036 616.379089,773.978516 
	C618.804016,773.872864 620.088623,774.602539 620.025269,777.323914 
	C619.631714,794.234253 619.375793,811.148193 618.864502,828.054565 
	C618.834045,829.060181 617.119690,830.596924 615.957764,830.858215 
	C613.900452,831.320862 611.665283,830.992432 609.019836,830.995117 
z"/>
<path fill="#F0F0F0" opacity="1.000000" stroke="none" 
	d="
M662.837097,716.939270 
	C662.048096,720.693298 660.890259,724.294189 659.464233,728.159790 
	C655.913635,725.048035 653.754272,728.079529 652.592834,730.252686 
	C647.842651,739.140686 643.488037,748.242004 639.079834,757.309509 
	C637.998230,759.534241 637.285278,761.936340 636.367676,764.242920 
	C633.235962,772.114990 629.066467,771.132202 622.129639,770.824097 
	C621.388489,770.791260 620.213379,769.145569 620.116211,768.161560 
	C619.839905,765.363342 619.857117,762.509644 620.043457,759.696716 
	C620.927185,746.355164 621.931030,733.021606 622.808960,719.679749 
	C622.890747,718.437256 622.389343,717.156372 621.927063,714.624756 
	C631.383301,714.624756 640.380615,714.397583 649.358093,714.722046 
	C653.747314,714.880676 658.099426,716.065613 662.837097,716.939270 
z"/>
<path fill="#F0F1F1" opacity="1.000000" stroke="none" 
	d="
M665.981689,832.995117 
	C669.748840,832.995117 673.026001,832.995117 677.260010,832.995117 
	C672.704407,835.961243 633.130432,835.054871 620.698242,832.003540 
	C628.006836,832.003540 635.318420,831.874695 642.623291,832.039062 
	C650.249451,832.210632 657.869141,832.664612 665.981689,832.995117 
z"/>
<path fill="#E4E6E6" opacity="1.000000" stroke="none" 
	d="
M774.306641,833.966370 
	C764.385376,833.636414 754.936157,833.331543 745.487427,833.008179 
	C743.800659,832.950500 742.116516,832.815979 740.562744,832.455200 
	C758.016846,832.455200 775.471008,832.455200 792.925110,832.455200 
	C792.928650,832.965210 792.932190,833.475159 792.935730,833.985168 
	C786.883423,833.985168 780.831055,833.985168 774.306641,833.966370 
z"/>
<path fill="#F0F1F2" opacity="1.000000" stroke="none" 
	d="
M943.643433,654.991211 
	C945.717590,654.723022 947.332458,654.456604 950.063049,654.006165 
	C947.111328,673.701721 946.745178,693.020264 950.815857,712.869507 
	C939.661987,715.183289 928.627197,713.444885 917.437500,714.070435 
	C917.981445,703.467102 918.733765,693.567810 918.912354,683.658264 
	C919.032776,676.970947 918.420227,670.264221 917.995972,663.575012 
	C917.576233,656.956604 919.251160,655.005249 925.700500,655.000488 
	C931.528381,654.996216 937.356201,654.995300 943.643433,654.991211 
z"/>
<path fill="#F4F5F5" opacity="1.000000" stroke="none" 
	d="
M918.869873,572.298462 
	C924.011597,565.835266 938.746399,564.522522 943.487061,570.651123 
	C946.209106,574.169983 947.223572,579.438721 947.837769,584.074585 
	C949.369324,595.634094 950.584351,595.068359 938.052185,595.005554 
	C933.399414,594.982239 928.743530,595.101196 924.094299,594.970581 
	C919.307007,594.836060 916.925049,592.652466 917.090149,587.869019 
	C917.265503,582.788330 918.136414,577.731689 918.869873,572.298462 
z"/>
<path fill="#DCDDDE" opacity="1.000000" stroke="none" 
	d="
M910.391235,907.037476 
	C910.047668,901.967590 910.041016,896.961365 910.046509,891.491211 
	C910.523621,890.865662 911.359924,890.766785 911.399353,890.533264 
	C912.497742,884.033020 918.919617,881.633057 922.061096,876.650452 
	C925.460632,871.258484 937.780579,868.348999 943.408997,871.513550 
	C945.319336,872.587646 947.050842,875.229187 947.496338,877.431274 
	C948.996155,884.843750 950.461609,892.349976 950.859741,899.877563 
	C951.416992,910.412109 949.048584,912.914368 939.129822,914.798706 
	C935.114014,915.561523 930.822876,917.438293 927.114197,916.651917 
	C921.581787,915.478943 914.421448,915.970947 912.107422,908.405884 
	C911.946411,907.879578 911.201538,907.531860 910.391235,907.037476 
z"/>
</svg>