<svg version="1.1" id="Layer_1" xmlns="http://www.w3.org/2000/svg" xmlns:xlink="http://www.w3.org/1999/xlink" x="0px" y="0px"
	 width="100%" viewBox="0 0 1024 960" enable-background="new 0 0 1024 960" xml:space="preserve">
<path fill="#4267AD" opacity="1.000000" stroke="none" 
	d="
M319.000000,158.742752 
	C495.636139,158.739899 671.772644,158.557755 847.908020,158.924606 
	C875.271790,158.981613 896.631653,171.281174 908.953369,196.739365 
	C912.026978,203.089828 913.289856,209.940521 913.287659,217.090744 
	C913.235291,386.061554 913.375916,555.032654 913.083191,724.002991 
	C913.044189,746.495422 900.078003,761.811523 880.934021,772.219910 
	C870.201294,778.055237 858.601929,780.923706 846.395508,780.925171 
	C630.266479,780.951355 414.137512,780.966003 198.008530,780.894714 
	C178.164871,780.888184 160.123871,775.234070 145.548935,761.186890 
	C134.540329,750.576904 128.610825,737.640198 128.617661,722.008179 
	C128.691162,554.037109 128.716858,386.066040 128.606766,218.095078 
	C128.592316,196.048187 139.059509,180.396225 156.981567,169.117203 
	C168.506500,161.864151 181.331314,158.675446 195.020813,158.706223 
	C236.180359,158.798737 277.340240,158.742142 319.000000,158.742752 
M809.500000,753.852112 
	C821.830444,753.841492 834.164307,753.644165 846.490601,753.864868 
	C863.940857,754.177246 882.262634,740.859192 882.010315,718.309692 
	C881.382141,662.160645 881.847168,605.999512 881.856995,549.843201 
	C881.871521,466.858490 881.873962,383.873779 881.874207,300.889069 
	C881.874207,294.538788 881.695496,294.366425 875.493225,294.368103 
	C862.338074,294.371643 849.182861,294.407196 836.027710,294.408386 
	C801.200806,294.411560 766.373962,294.402740 731.547058,294.399963 
	C543.414978,294.385010 355.282959,294.370209 167.150894,294.356628 
	C159.961960,294.356110 159.960358,294.362091 159.959290,301.524292 
	C159.943375,407.825287 159.950775,514.126282 159.899017,620.427246 
	C159.882645,654.083618 159.658539,687.739807 159.661255,721.396118 
	C159.661667,726.405396 160.742737,731.320068 163.353210,735.753113 
	C171.169464,749.026428 183.046448,754.008728 198.112564,753.998413 
	C401.574982,753.859436 605.037476,753.874023 809.500000,753.852112 
M484.500031,185.273773 
	C417.177948,185.273895 349.855835,185.269455 282.533752,185.276215 
	C252.872025,185.279190 223.209839,185.213486 193.548721,185.354782 
	C175.871216,185.438980 159.423126,200.979691 159.615601,216.969635 
	C159.780014,230.629227 159.867737,244.290039 159.919205,257.950592 
	C159.956024,267.727814 159.904266,267.738129 170.020538,267.738922 
	C348.657501,267.752899 527.294434,267.765869 705.931396,267.775269 
	C762.421997,267.778229 818.912781,267.716095 875.403015,267.861694 
	C880.346069,267.874420 882.072693,266.620422 881.944458,261.426788 
	C881.582642,246.771225 881.811340,232.101517 881.766479,217.437515 
	C881.738831,208.410675 878.131836,201.043106 871.459778,195.005508 
	C863.612305,187.904251 854.365967,185.221268 843.940125,185.226761 
	C724.460083,185.289719 604.980103,185.271194 484.500031,185.273773 
z"/>
<path fill="#4267AD" opacity="1.000000" stroke="none" 
	d="
M838.209106,702.919678 
	C835.380798,710.708252 829.419556,712.937256 822.251587,712.949524 
	C795.586548,712.994995 768.921265,712.961792 742.256104,712.960205 
	C567.932373,712.949829 393.608673,712.941772 219.284958,712.911804 
	C216.960236,712.911438 214.618912,712.765991 212.313828,712.468018 
	C204.216339,711.420959 199.266510,705.980408 199.536240,698.558228 
	C199.785904,691.688293 205.366669,686.381042 213.263199,686.032471 
	C219.917175,685.738708 226.592911,685.949524 233.258911,685.914490 
	C239.818298,685.880066 239.869263,685.867676 239.872162,679.210876 
	C239.901337,612.214661 239.917206,545.218384 239.924850,478.222168 
	C239.926422,464.377808 246.010834,458.121429 260.036560,458.053558 
	C284.868011,457.933350 309.700348,457.929504 334.532135,457.973297 
	C347.196930,457.995636 353.996552,464.804840 354.011230,477.433441 
	C354.089142,544.429443 354.124573,611.425476 354.170227,678.421509 
	C354.175354,685.938599 354.162231,685.944031 361.463013,685.942627 
	C368.129211,685.941284 374.795441,685.908264 381.461609,685.922668 
	C388.691254,685.938293 388.708557,685.955139 388.711273,678.913147 
	C388.728973,633.082336 388.740448,587.251526 388.749512,541.420715 
	C388.752014,528.828674 393.992523,522.425720 406.428925,522.206604 
	C432.418671,521.748901 458.422302,521.952637 484.418854,522.109436 
	C489.447693,522.139771 494.343475,523.573547 498.134491,527.308777 
	C501.428589,530.554504 502.375885,534.542542 502.365417,539.135559 
	C502.259613,585.632690 502.289215,632.130005 502.277985,678.627319 
	C502.276215,685.949707 502.269684,685.959167 509.753845,685.955994 
	C516.753296,685.953003 523.767761,685.641235 530.747131,686.007385 
	C535.744629,686.269470 536.860291,684.300598 536.833435,679.647278 
	C536.642761,646.650146 536.684937,613.651550 536.689941,580.653381 
	C536.691772,568.311584 542.311340,562.628601 554.614502,562.606934 
	C580.779602,562.560852 606.944824,562.553345 633.109863,562.612305 
	C645.213806,562.639526 651.235291,568.730957 651.237305,580.746948 
	C651.242920,613.578430 651.227478,646.409851 651.216553,679.241333 
	C651.214355,685.885864 651.206482,685.910583 657.832703,685.932068 
	C665.165405,685.955872 672.502075,685.785828 679.829529,685.980896 
	C683.734070,686.084839 685.101318,684.619446 685.061340,680.725830 
	C684.898621,664.894836 684.931885,649.061523 684.959717,633.229126 
	C684.979614,621.888855 691.441101,615.015320 702.863708,614.928223 
	C729.194031,614.727356 755.527771,614.707886 781.858032,614.897400 
	C793.058411,614.977966 799.366455,621.693176 799.401306,632.801270 
	C799.450378,648.466797 799.584045,664.136353 799.274353,679.796143 
	C799.176758,684.731934 800.805908,686.203918 805.544373,685.949158 
	C811.858948,685.609619 818.212952,685.673584 824.536804,685.912354 
	C834.309692,686.281311 839.869446,693.149292 838.209106,702.919678 
M297.499969,485.193359 
	C291.168945,485.187592 284.819031,485.480927 278.512817,485.082306 
	C273.386322,484.758270 272.047943,486.620728 272.061890,491.623596 
	C272.229736,551.933655 272.184265,612.244385 272.197296,672.554932 
	C272.197968,675.720337 272.290344,678.887146 272.218872,682.050659 
	C272.156281,684.819580 273.435028,685.913818 276.146973,685.906555 
	C289.974731,685.869507 303.802948,685.859375 317.630310,685.947510 
	C321.016174,685.969055 321.851837,684.318848 321.783508,681.277222 
	C321.645020,675.116089 321.751831,668.949585 321.748383,662.785278 
	C321.716370,605.640503 321.628448,548.495605 321.746307,491.351135 
	C321.756317,486.504517 320.280243,484.814758 315.489075,485.095062 
	C309.843414,485.425385 304.164459,485.186157 297.499969,485.193359 
M420.906525,611.500000 
	C420.919525,634.666504 421.063995,657.834351 420.827484,680.998291 
	C420.783600,685.297791 422.369690,685.981628 426.022583,685.940491 
	C438.687531,685.797485 451.358032,685.732849 464.020142,685.971375 
	C468.599152,686.057617 470.001953,684.543152 469.984070,679.941833 
	C469.822052,638.276123 469.828888,596.609375 469.951996,554.943420 
	C469.964539,550.704651 468.902954,548.989868 464.372955,549.078491 
	C451.711273,549.326294 439.037964,549.330811 426.376740,549.069519 
	C421.810211,548.975281 420.287231,550.422668 420.373932,555.021973 
	C420.722351,573.511414 420.755859,592.006836 420.906525,611.500000 
M569.102173,635.500000 
	C569.088135,650.485840 569.126526,665.472046 569.021240,680.457275 
	C568.996460,683.984131 569.671814,686.071350 573.933044,686.005066 
	C587.250732,685.797852 600.574158,685.811340 613.893311,685.944092 
	C617.629150,685.981262 618.768494,684.557434 618.758179,680.937134 
	C618.676270,651.964722 618.697449,622.991699 618.813721,594.019409 
	C618.828308,590.386719 617.621460,588.979675 613.916077,589.015442 
	C600.763184,589.142578 587.606567,589.153137 574.454712,588.968262 
	C570.302673,588.909912 568.933044,590.470703 568.990173,594.538574 
	C569.177124,607.856934 569.086365,621.179199 569.102173,635.500000 
M736.500854,685.865295 
	C744.991333,685.863892 753.484985,685.725525 761.970886,685.922546 
	C765.833740,686.012207 767.881836,685.208557 767.560730,680.718811 
	C766.717102,668.925049 766.853088,657.100220 767.245056,645.289001 
	C767.342407,642.356873 765.768250,641.974426 763.537842,641.975281 
	C749.553650,641.980591 735.569458,642.004456 721.585388,641.962891 
	C718.662415,641.954224 717.246094,643.112183 717.485046,646.148926 
	C718.400635,657.784607 717.926636,669.442993 717.905823,681.090576 
	C717.899109,684.844116 719.442322,686.094910 723.017700,685.924133 
	C727.170532,685.725830 731.339661,685.869934 736.500854,685.865295 
z"/>
<path fill="#4267AD" opacity="1.000000" stroke="none" 
	d="
M686.066040,558.506592 
	C682.692566,548.213562 688.411072,540.164124 699.168762,539.882996 
	C708.494141,539.639221 717.830505,539.838562 727.161499,539.767883 
	C728.928711,539.754456 730.780518,540.174255 733.196289,538.908691 
	C726.170715,533.126831 719.480957,527.516968 712.681824,522.043030 
	C672.714355,489.865570 632.687317,457.762024 592.793884,425.493195 
	C589.098816,422.504333 585.920593,421.954010 581.445007,423.586609 
	C539.523010,438.879059 497.493744,453.877625 455.577881,469.186707 
	C447.102478,472.282166 439.529205,471.689728 431.716309,467.192352 
	C392.740326,444.756653 353.648499,422.522186 314.603851,400.205750 
	C302.022400,393.014648 289.414948,385.867340 276.905823,378.552216 
	C268.725220,373.768341 266.303741,366.679047 270.179840,359.805389 
	C274.022064,352.991730 283.145447,350.385071 290.733521,354.666748 
	C314.379974,368.009644 337.859406,381.648438 361.409546,395.162109 
	C388.281372,410.581848 415.175262,425.963196 442.013885,441.440491 
	C445.132050,443.238647 447.941925,443.566956 451.419128,442.292480 
	C490.037231,428.137878 528.703918,414.115662 567.365906,400.080963 
	C572.374084,398.262939 577.549072,396.854584 582.436523,394.764801 
	C590.465698,391.331665 597.250610,393.194305 603.754822,398.457184 
	C618.389587,410.298828 633.184204,421.942596 647.855408,433.739471 
	C682.260315,461.403900 716.628601,489.113831 751.025635,516.788086 
	C752.149353,517.692139 753.126160,518.919861 755.313232,519.198303 
	C755.788391,510.806549 756.242004,502.583313 756.726257,494.361877 
	C756.882385,491.712097 756.731628,488.965179 757.395325,486.439880 
	C759.056030,480.120850 765.157898,475.783051 771.576477,475.922791 
	C778.495728,476.073425 784.677917,480.754364 786.261841,487.356049 
	C786.837219,489.754272 786.954102,492.306030 786.965454,494.789185 
	C787.063599,516.284363 787.110291,537.779907 787.124878,559.275330 
	C787.129211,565.693115 786.791199,566.054626 780.306641,566.066772 
	C754.145508,566.115784 727.984192,566.141785 701.823120,566.083313 
	C695.602844,566.069397 689.895325,564.595520 686.066040,558.506592 
z"/>
<path fill="#4267AD" opacity="1.000000" stroke="none" 
	d="
M244.464630,231.960602 
	C237.498138,247.162842 217.334671,250.779007 205.809814,239.251648 
	C197.517578,230.957596 199.107742,218.183685 209.277328,211.396530 
	C217.612106,205.833939 230.539886,206.409698 238.214432,212.892853 
	C244.009384,217.788208 246.445312,223.991302 244.464630,231.960602 
z"/>
<path fill="#4267AD" opacity="1.000000" stroke="none" 
	d="
M279.236450,212.095764 
	C285.154816,207.870026 291.499817,206.968231 298.094208,208.060623 
	C307.880402,209.681717 315.021667,217.613174 315.269867,226.705063 
	C315.512421,235.590027 309.517273,242.782196 299.547821,245.302658 
	C291.001160,247.463425 283.198883,245.549210 276.904114,239.526123 
	C268.228638,231.225143 269.167297,221.321030 279.236450,212.095764 
z"/>
<path fill="#4267AD" opacity="1.000000" stroke="none" 
	d="
M344.552856,234.060181 
	C338.375732,222.479279 348.561371,205.177155 369.170654,208.036987 
	C380.160583,209.561996 388.351959,219.433456 387.094391,229.058868 
	C385.786865,239.066895 375.099121,246.968796 363.968384,245.968445 
	C355.744080,245.229294 348.927643,241.943726 344.552856,234.060181 
z"/>
</svg>